<svg width="20" height="20" viewBox="0 0 20 20" fill="none" xmlns="http://www.w3.org/2000/svg">
<path d="M14.1397 4.48667C14.2316 4.58209 14.3577 4.6371 14.4902 4.6396C14.6227 4.6421 14.7508 4.59189 14.8463 4.5L15.2497 4.11167V10.9142L14.8463 10.5258C14.75 10.4385 14.6235 10.3921 14.4935 10.3965C14.3636 10.4009 14.2404 10.4557 14.1502 10.5494C14.06 10.643 14.0099 10.7681 14.0104 10.8982C14.0109 11.0282 14.0621 11.1529 14.153 11.2458L15.9997 13.0258L17.8463 11.2458C17.8959 11.2009 17.9359 11.1464 17.9641 11.0857C17.9922 11.025 18.0079 10.9593 18.0101 10.8924C18.0124 10.8255 18.0012 10.7589 17.9772 10.6964C17.9532 10.6339 17.917 10.5769 17.8706 10.5287C17.8241 10.4805 17.7685 10.4421 17.707 10.4158C17.6455 10.3895 17.5793 10.3758 17.5124 10.3755C17.4455 10.3752 17.3792 10.3884 17.3174 10.4142C17.2557 10.44 17.1998 10.478 17.153 10.5258L16.7497 10.9142V4.11167L17.153 4.5C17.2493 4.58736 17.3759 4.63377 17.5058 4.62937C17.6358 4.62498 17.7589 4.57014 17.8491 4.47648C17.9393 4.38282 17.9894 4.25771 17.9889 4.12768C17.9884 3.99766 17.9373 3.87294 17.8463 3.78L16.7497 2.7225V2.69417H16.7205L15.9997 2L15.2788 2.69417H15.2497V2.7225L14.153 3.78C14.0576 3.87197 14.0026 3.99807 14.0001 4.13057C13.9976 4.26308 14.0478 4.39116 14.1397 4.48667ZM1.99966 3C1.99966 2.73478 2.10502 2.48043 2.29255 2.29289C2.48009 2.10536 2.73444 2 2.99966 2H11.9997C12.2649 2 12.5192 2.10536 12.7068 2.29289C12.8943 2.48043 12.9997 2.73478 12.9997 3V12C12.9997 12.2652 12.8943 12.5196 12.7068 12.7071C12.5192 12.8946 12.2649 13 11.9997 13H2.99966C2.73444 13 2.48009 12.8946 2.29255 12.7071C2.10502 12.5196 1.99966 12.2652 1.99966 12V3ZM4.47383 14.14C4.56914 14.2321 4.62399 14.3582 4.62634 14.4907C4.62868 14.6233 4.57832 14.7513 4.48633 14.8467L4.09799 15.25H10.9013L10.513 14.8467C10.4652 14.7999 10.4272 14.744 10.4014 14.6822C10.3756 14.6205 10.3624 14.5542 10.3627 14.4873C10.3629 14.4204 10.3766 14.3542 10.4029 14.2927C10.4292 14.2311 10.4676 14.1755 10.5158 14.1291C10.564 14.0827 10.6211 14.0464 10.6835 14.0224C10.746 13.9985 10.8127 13.9873 10.8795 13.9895C10.9464 13.9918 11.0122 14.0075 11.0729 14.0356C11.1336 14.0637 11.188 14.1038 11.233 14.1533L12.2897 15.25H12.318V15.2792L13.013 16L12.318 16.7208V16.75H12.2897L11.233 17.8467C11.14 17.9376 11.0153 17.9887 10.8853 17.9893C10.7553 17.9898 10.6302 17.9396 10.5365 17.8494C10.4429 17.7592 10.388 17.6361 10.3836 17.5061C10.3792 17.3762 10.4256 17.2496 10.513 17.1533L10.9013 16.75H4.09799L4.48633 17.1533C4.57369 17.2496 4.62009 17.3762 4.6157 17.5061C4.61131 17.6361 4.55647 17.7592 4.46281 17.8494C4.36915 17.9396 4.24404 17.9898 4.11401 17.9893C3.98398 17.9887 3.85927 17.9376 3.76633 17.8467L1.98633 16L3.76633 14.1533C3.81188 14.106 3.86633 14.068 3.92655 14.0417C3.98678 14.0154 4.0516 14.0012 4.11731 14C4.18302 13.9987 4.24834 14.0105 4.30951 14.0345C4.37068 14.0585 4.42652 14.0944 4.47383 14.14Z" fill="#333333"/>
</svg>
