<svg width="20" height="20" viewBox="0 0 20 20" fill="none" xmlns="http://www.w3.org/2000/svg">
<path d="M13.7908 3.5625C14.4858 3.5625 15.05 4.12667 15.05 4.82167V9H2.88917C2.3975 9 2 9.4475 2 10C2 10.5525 2.39833 11 2.88917 11H17.1108C17.6025 11 18 10.5525 18 10C18 9.4475 17.6017 9 17.1108 9H16.55V4.82167C16.55 4.08989 16.2593 3.38809 15.7419 2.87064C15.2244 2.3532 14.5226 2.0625 13.7908 2.0625H13.3808C12.943 2.0624 12.5139 2.1846 12.1418 2.41532C11.7698 2.64605 11.4695 2.97612 11.275 3.36833C10.7983 3.24816 10.2976 3.26301 9.82881 3.41121C9.36007 3.55941 8.94181 3.83513 8.62083 4.2075C8.44 4.41667 8.525 4.72667 8.76417 4.865L12.4925 7.01667C12.7317 7.155 13.0425 7.07417 13.1333 6.81333C13.2917 6.35902 13.3234 5.87017 13.2251 5.3992C13.1267 4.92824 12.902 4.49294 12.575 4.14C12.632 3.97154 12.7404 3.8252 12.885 3.7216C13.0296 3.618 13.203 3.56235 13.3808 3.5625H13.7908ZM3.03167 12H16.9683C16.9692 12.6754 16.8329 13.344 16.5676 13.9651C16.3023 14.5862 15.9136 15.147 15.425 15.6133L15.8942 16.5525C15.9552 16.6702 15.9922 16.7988 16.0031 16.9309C16.014 17.063 15.9985 17.1959 15.9575 17.3219C15.9166 17.448 15.851 17.5647 15.7645 17.6651C15.6781 17.7656 15.5726 17.8479 15.454 17.9072C15.3355 17.9665 15.2064 18.0017 15.0741 18.0107C14.9419 18.0196 14.8092 18.0022 14.6837 17.9594C14.5583 17.9167 14.4426 17.8494 14.3434 17.7615C14.2442 17.6736 14.1634 17.5669 14.1058 17.4475L13.7233 16.6833C13.1624 16.8933 12.5682 17.0006 11.9692 17H8.03167C7.41417 17 6.8225 16.8883 6.27667 16.6833L5.89417 17.4475C5.83657 17.5669 5.75582 17.6736 5.65661 17.7615C5.5574 17.8494 5.4417 17.9167 5.31625 17.9594C5.19081 18.0022 5.05811 18.0196 4.92587 18.0107C4.79363 18.0017 4.6645 17.9665 4.54597 17.9072C4.42745 17.8479 4.32189 17.7656 4.23545 17.6651C4.14901 17.5647 4.08341 17.448 4.04246 17.3219C4.0015 17.1959 3.98601 17.063 3.99689 16.9309C4.00777 16.7988 4.0448 16.6702 4.10583 16.5525L4.575 15.6133C4.08642 15.147 3.69769 14.5862 3.43239 13.9651C3.16709 13.344 3.03076 12.6754 3.03167 12Z" fill="#333333"/>
</svg>
