<svg width="14" height="14" xmlns="http://www.w3.org/2000/svg"><path fill-rule="evenodd" clip-rule="evenodd" d="M10.103 3.4v.455h1.44l-.278-2.674c-.054-.59-.513-1.04-1.06-1.04h-6.6c-.547 0-1.006.45-1.06 1.04l-.277 2.674h1.439V3.4c0-.458.25-.873.637-1.058a5.876 5.876 0 0 1 2.561-.565c.917 0 1.771.189 2.562.565.387.185.636.6.636 1.058Zm1.94 10.6h.846l.882-4.556a3 3 0 0 0-.22-1.825L12.53 5.4c-.18-.392-.55-.64-.954-.64H2.237c-.405 0-.776.25-.956.644L.271 7.623a3 3 0 0 0-.216 1.814L.938 14h.827l.468-2.023a.527.527 0 0 1 .46-.287h8.422c.19 0 .365.11.46.287L12.044 14Z" fill="#292f37" /></svg>
