<svg width="18" height="11" viewBox="0 0 18 11" fill="none" xmlns="http://www.w3.org/2000/svg">
<path fill-rule="evenodd" clip-rule="evenodd" d="M15.685 1.22462C15.6411 0.775084 15.2678 0.432617 14.8218 0.432617H3.41758C2.97149 0.432617 2.59819 0.775084 2.55436 1.22462L2.32819 3.20682H3.8668L3.86758 2.91715L3.87306 2.81302C3.90436 2.50648 4.07654 2.23735 4.32932 2.11048C4.89996 1.82383 5.53821 1.67583 6.18567 1.68002C6.85088 1.68002 7.46915 1.82375 8.04201 2.11048C8.29401 2.23735 8.46619 2.50648 8.49828 2.81302L8.50297 2.91715V3.20608H9.59236L9.59315 2.91715L9.59862 2.81302C9.62993 2.50648 9.8021 2.23735 10.0549 2.11048C10.6255 1.82383 11.2638 1.67583 11.9112 1.68002C12.5757 1.68002 13.1947 1.82375 13.7676 2.11048C14.0196 2.23735 14.1918 2.50648 14.2231 2.81302L14.2285 2.91715V3.20608L15.9111 3.20682L15.6858 1.22535L15.685 1.22462ZM16.7258 4.44248C16.5795 4.14328 16.279 3.95482 15.9503 3.95482H2.2781C1.94784 3.95482 1.64575 4.14548 1.50019 4.44615L0.664363 6.16142C0.461902 6.57789 0.403084 7.04315 0.496102 7.49242L1.2208 11H2.24445L2.6248 9.45702C2.66033 9.39206 2.71407 9.33739 2.78025 9.29889C2.84643 9.26039 2.92256 9.23951 3.00045 9.23848H15.2248C15.3798 9.23848 15.5222 9.32208 15.6005 9.45702L15.9808 11H17.0185L17.7424 7.49828C17.8359 7.04628 17.7757 6.57819 17.5703 6.15995L16.7258 4.44248Z" fill="#333333"/>
</svg>
