<svg width="20" height="20" viewBox="0 0 20 20" fill="none" xmlns="http://www.w3.org/2000/svg">
<path fill-rule="evenodd" clip-rule="evenodd" d="M17.8651 5.25488C17.9101 5.19346 17.9343 5.11933 17.9343 5.04321C17.9343 4.9671 17.9101 4.89296 17.8651 4.83155C17.3768 4.14821 15.4326 2.04321 10.0001 2.04321C3.95426 2.04321 2.40592 4.21321 2.07759 4.86238C2.04971 4.91727 2.03739 4.97875 2.04194 5.04015C2.04649 5.10155 2.06776 5.16053 2.10342 5.21071C2.50009 5.78905 4.13592 7.68738 8.68509 7.99988H4.40009C4.294 7.99988 4.19226 8.04202 4.11725 8.11704C4.04223 8.19205 4.00009 8.29379 4.00009 8.39988V9.59988C4.00009 9.82071 4.17926 9.99988 4.40009 9.99988H13.5001C13.6327 9.99988 13.7599 10.0526 13.8536 10.1463C13.9474 10.2401 14.0001 10.3673 14.0001 10.4999C14.0001 10.6325 13.9474 10.7597 13.8536 10.8534C13.7599 10.9472 13.6327 10.9999 13.5001 10.9999H4.40009C4.294 10.9999 4.19226 11.042 4.11725 11.117C4.04223 11.1921 4.00009 11.2938 4.00009 11.3999V12.5999C4.00009 12.8207 4.17926 12.9999 4.40009 12.9999H5.49842C5.17012 13 4.84505 13.0648 4.54178 13.1905C4.23851 13.3162 3.96297 13.5005 3.7309 13.7327C3.26222 14.2017 2.99904 14.8377 2.99926 15.5007C2.99948 16.1638 3.26308 16.7996 3.73208 17.2682C4.20108 17.7369 4.83705 18.0001 5.50009 17.9999H16.6001C16.7062 17.9999 16.8079 17.9577 16.8829 17.8827C16.9579 17.8077 17.0001 17.706 17.0001 17.5999V16.3999C17.0001 16.2938 16.9579 16.1921 16.8829 16.117C16.8079 16.042 16.7062 15.9999 16.6001 15.9999H5.50009C5.36748 15.9999 5.2403 15.9472 5.14654 15.8534C5.05277 15.7597 5.00009 15.6325 5.00009 15.4999C5.00009 15.3673 5.05277 15.2401 5.14654 15.1463C5.2403 15.0526 5.36748 14.9999 5.50009 14.9999H16.6001C16.7062 14.9999 16.8079 14.9577 16.8829 14.8827C16.9579 14.8077 17.0001 14.706 17.0001 14.5999V13.3999C17.0001 13.2938 16.9579 13.1921 16.8829 13.117C16.8079 13.042 16.7062 12.9999 16.6001 12.9999H13.5018C14.1648 12.9997 14.8006 12.7361 15.2693 12.2671C15.738 11.7981 16.0011 11.1621 16.0009 10.499C16.0007 9.83601 15.7371 9.20021 15.2681 8.73152C14.7991 8.26284 14.1631 7.99966 13.5001 7.99988H11.3143C15.7534 7.69488 17.4184 5.88071 17.8651 5.25488Z" fill="#333333"/>
</svg>
