<svg width="20" height="20" viewBox="0 0 20 20" fill="none" xmlns="http://www.w3.org/2000/svg">
<path d="M2 3C2 2.73478 2.10536 2.48043 2.29289 2.29289C2.48043 2.10536 2.73478 2 3 2H17C17.2652 2 17.5196 2.10536 17.7071 2.29289C17.8946 2.48043 18 2.73478 18 3V5.0625H2V3Z" fill="#333333"/>
<path fill-rule="evenodd" clip-rule="evenodd" d="M14.5 6.0625H18V17.6C18 17.7061 17.9579 17.8078 17.8828 17.8828C17.8078 17.9579 17.7061 18 17.6 18H16.4C16.2939 18 16.1922 17.9579 16.1172 17.8828C16.0421 17.8078 16 17.7061 16 17.6V17H10V6.0625H13.5V6.76L11.1875 8.61C11.1068 8.67478 11.0481 8.76302 11.0197 8.86255C10.9912 8.96207 10.9943 9.06798 11.0286 9.16565C11.0629 9.26332 11.1267 9.34794 11.2111 9.40782C11.2955 9.46771 11.3965 9.49992 11.5 9.5H16.5C16.6037 9.50014 16.7049 9.46801 16.7896 9.40808C16.8742 9.34815 16.9381 9.26338 16.9725 9.16551C17.0068 9.06764 17.0098 8.96151 16.9812 8.86183C16.9525 8.76215 16.8936 8.67386 16.8125 8.60917L14.5 6.75917V6.0625ZM12.6192 15.0317C12.5131 15.0317 12.4113 14.9895 12.3363 14.9145C12.2613 14.8395 12.2192 14.7378 12.2192 14.6317V14.4317C12.2192 14.3256 12.2613 14.2238 12.3363 14.1488C12.4113 14.0738 12.5131 14.0317 12.6192 14.0317H15.3808C15.4869 14.0317 15.5887 14.0738 15.6637 14.1488C15.7387 14.2238 15.7808 14.3256 15.7808 14.4317V14.6317C15.7808 14.7378 15.7387 14.8395 15.6637 14.9145C15.5887 14.9895 15.4869 15.0317 15.3808 15.0317H12.6192ZM2 6.0625H9V17H4V17.6C4 17.7061 3.95786 17.8078 3.88284 17.8828C3.80783 17.9579 3.70609 18 3.6 18H2.4C2.29391 18 2.19217 17.9579 2.11716 17.8828C2.04214 17.8078 2 17.7061 2 17.6V6.0625ZM6.9625 8.625C6.90997 8.625 6.85796 8.63535 6.80943 8.65545C6.7609 8.67555 6.7168 8.70501 6.67966 8.74216C6.64251 8.7793 6.61305 8.8234 6.59295 8.87193C6.57285 8.92046 6.5625 8.97247 6.5625 9.025V11.7875C6.5625 12.0083 6.74167 12.1875 6.9625 12.1875H7.1625C7.21503 12.1875 7.26704 12.1772 7.31557 12.1571C7.3641 12.137 7.4082 12.1075 7.44534 12.0703C7.48249 12.0332 7.51195 11.9891 7.53205 11.9406C7.55215 11.892 7.5625 11.84 7.5625 11.7875V9.025C7.5625 8.91891 7.52036 8.81717 7.44534 8.74216C7.37033 8.66714 7.26859 8.625 7.1625 8.625H6.9625Z" fill="#333333"/>
<path d="M13.9998 7.63989L15.0748 8.49989H12.9248L13.9998 7.63989Z" fill="#333333"/>
</svg>
