<svg width="20" height="20" viewBox="0 0 20 20" fill="none" xmlns="http://www.w3.org/2000/svg">
<path fill-rule="evenodd" clip-rule="evenodd" d="M1 2.41675C1 1.79591 1.50333 1.29175 2.125 1.29175H17.875C18.4958 1.29175 19 1.79591 19 2.41675V9.84341C19 9.99115 18.9709 10.1374 18.9144 10.2739C18.8578 10.4104 18.775 10.5344 18.6705 10.6389C18.566 10.7434 18.442 10.8262 18.3055 10.8828C18.169 10.9393 18.0227 10.9684 17.875 10.9684H2.125C1.82663 10.9684 1.54048 10.8499 1.3295 10.6389C1.11853 10.4279 1 10.1418 1 9.84341V2.41675ZM3.25 4.24508C3.25 3.94671 3.36853 3.66056 3.5795 3.44959C3.79048 3.23861 4.07663 3.12008 4.375 3.12008C4.67337 3.12008 4.95952 3.23861 5.17049 3.44959C5.38147 3.66056 5.5 3.94671 5.5 4.24508C5.5 4.54345 5.38147 4.8296 5.17049 5.04058C4.95952 5.25155 4.67337 5.37008 4.375 5.37008C4.07663 5.37008 3.79048 5.25155 3.5795 5.04058C3.36853 4.8296 3.25 4.54345 3.25 4.24508ZM3.25 8.27008C3.25 7.77258 3.6525 7.37008 4.15 7.37008H15.85C16.0887 7.37008 16.3176 7.4649 16.4864 7.63369C16.6552 7.80247 16.75 8.03139 16.75 8.27008C16.75 8.50878 16.6552 8.73769 16.4864 8.90648C16.3176 9.07526 16.0887 9.17008 15.85 9.17008H4.15C3.9113 9.17008 3.68239 9.07526 3.5136 8.90648C3.34482 8.73769 3.25 8.50878 3.25 8.27008Z" fill="#333333"/>
<path d="M4.80368 13.39C4.97876 13.2324 5.08509 13.0125 5.09984 12.7774C5.11459 12.5423 5.03658 12.3108 4.88257 12.1326C4.72856 11.9544 4.51082 11.8436 4.27608 11.8241C4.04134 11.8047 3.80831 11.878 3.62701 12.0283L2.90701 12.6508C2.71388 12.8178 2.55848 13.0239 2.45111 13.2555C2.34375 13.4872 2.28687 13.739 2.28427 13.9942C2.28167 14.2495 2.3334 14.5024 2.43603 14.7362C2.53865 14.9699 2.68982 15.1792 2.87951 15.35L4.19868 16.5375L3.53201 17.1392C3.4417 17.2176 3.36792 17.3131 3.31497 17.4203C3.26202 17.5275 3.23096 17.6442 3.22361 17.7636C3.21625 17.8829 3.23276 18.0025 3.27215 18.1154C3.31154 18.2283 3.37304 18.3322 3.45304 18.4211C3.53305 18.51 3.62995 18.582 3.73811 18.633C3.84626 18.684 3.96349 18.7129 4.08295 18.7181C4.20241 18.7232 4.3217 18.7046 4.43386 18.6631C4.54601 18.6217 4.64879 18.5583 4.73618 18.4767L5.40284 17.8758C5.59025 17.7071 5.74009 17.5008 5.84266 17.2704C5.94523 17.04 5.99823 16.7906 5.99823 16.5383C5.99823 16.2861 5.94523 16.0367 5.84266 15.8063C5.74009 15.5759 5.59025 15.3696 5.40284 15.2008L4.08368 14.0117L4.80368 13.3892V13.39ZM10.7628 12.1208C10.9189 12.3013 10.997 12.5364 10.9798 12.7744C10.9626 13.0124 10.8516 13.2338 10.6712 13.39L9.95034 14.0125L11.2695 15.2C11.4569 15.3688 11.6068 15.5751 11.7093 15.8055C11.8119 16.0359 11.8649 16.2853 11.8649 16.5375C11.8649 16.7897 11.8119 17.0391 11.7093 17.2695C11.6068 17.4999 11.4569 17.7062 11.2695 17.875L10.6028 18.4767C10.515 18.5558 10.4125 18.6169 10.3011 18.6563C10.1896 18.6958 10.0715 18.713 9.9535 18.7068C9.83545 18.7007 9.71977 18.6713 9.61307 18.6205C9.50636 18.5696 9.41072 18.4983 9.33159 18.4104C9.25247 18.3226 9.19142 18.2201 9.15193 18.1087C9.11244 17.9972 9.09528 17.8791 9.10144 17.7611C9.10759 17.643 9.13693 17.5274 9.18779 17.4207C9.23865 17.3139 9.31002 17.2183 9.39784 17.1392L10.0653 16.5383L8.74618 15.35C8.55635 15.1792 8.40506 14.9699 8.30235 14.736C8.19964 14.5022 8.14787 14.2492 8.15047 13.9938C8.15307 13.7384 8.20999 13.4865 8.31744 13.2548C8.42489 13.0231 8.58041 12.817 8.77368 12.65L9.49368 12.0283C9.67416 11.8723 9.90924 11.7942 10.1472 11.8114C10.3852 11.8286 10.6067 11.9396 10.7628 12.12V12.1208ZM16.6295 12.1208C16.7856 12.3013 16.8636 12.5364 16.8464 12.7744C16.8292 13.0124 16.7182 13.2338 16.5378 13.39L15.8178 14.0125L17.1362 15.2C17.3236 15.3688 17.4734 15.5751 17.576 15.8055C17.6786 16.0359 17.7316 16.2853 17.7316 16.5375C17.7316 16.7897 17.6786 17.0391 17.576 17.2695C17.4734 17.4999 17.3236 17.7062 17.1362 17.875L16.4695 18.4767C16.3817 18.5558 16.2791 18.6169 16.1677 18.6563C16.0563 18.6958 15.9382 18.713 15.8202 18.7068C15.7021 18.7007 15.5864 18.6713 15.4797 18.6205C15.373 18.5696 15.2774 18.4983 15.1983 18.4104C15.1191 18.3226 15.0581 18.2201 15.0186 18.1087C14.9791 17.9972 14.962 17.8791 14.9681 17.7611C14.9743 17.643 15.0036 17.5274 15.0545 17.4207C15.1053 17.3139 15.1767 17.2183 15.2645 17.1392L15.932 16.5383L14.6128 15.35C14.423 15.1792 14.2717 14.9699 14.169 14.736C14.0663 14.5022 14.0145 14.2492 14.0171 13.9938C14.0197 13.7384 14.0767 13.4865 14.1841 13.2548C14.2916 13.0231 14.4471 12.817 14.6403 12.65L15.3603 12.0283C15.5408 11.8723 15.7759 11.7942 16.0139 11.8114C16.2519 11.8286 16.4733 11.9396 16.6295 12.12V12.1208Z" fill="#333333"/>
</svg>
