<svg width="20" height="20" viewBox="0 0 20 20" fill="none" xmlns="http://www.w3.org/2000/svg">
<path fill-rule="evenodd" clip-rule="evenodd" d="M11.9588 2.27076L5.96875 4.0041V9.01243L11.4679 10.5899L10.6854 13.0316H10.0629C9.81305 13.042 9.57686 13.1485 9.40373 13.329C9.2306 13.5094 9.13393 13.7498 9.13393 13.9999C9.13393 14.25 9.2306 14.4904 9.40373 14.6709C9.57686 14.8513 9.81305 14.9579 10.0629 14.9683H10.0654L9.51208 16.6949C9.46406 16.8449 9.45212 17.0041 9.47725 17.1595C9.50238 17.315 9.56387 17.4623 9.6567 17.5895C9.74954 17.7167 9.8711 17.8201 10.0115 17.8915C10.1519 17.9628 10.3071 18 10.4646 17.9999H12.6454C12.8573 18 13.0638 17.9327 13.235 17.8077C13.4062 17.6828 13.5333 17.5068 13.5979 17.3049L15.8246 10.3549C16.7325 9.8087 17.4185 8.95963 17.7618 7.95726C18.1052 6.95489 18.0838 5.86352 17.7015 4.87535C17.3192 3.88719 16.6005 3.06561 15.6719 2.55532C14.7434 2.04502 13.6645 1.87874 12.6254 2.08576V2.07743L12.5421 2.10243C12.3421 2.14576 12.1479 2.20243 11.9588 2.27076ZM13.0004 5.99993C13.0004 6.39776 13.1585 6.77929 13.4398 7.06059C13.7211 7.3419 14.1026 7.49993 14.5004 7.49993C14.8982 7.49993 15.2798 7.3419 15.5611 7.06059C15.8424 6.77929 16.0004 6.39776 16.0004 5.99993C16.0004 5.60211 15.8424 5.22058 15.5611 4.93927C15.2798 4.65797 14.8982 4.49993 14.5004 4.49993C14.1026 4.49993 13.7211 4.65797 13.4398 4.93927C13.1585 5.22058 13.0004 5.60211 13.0004 5.99993Z" fill="#333333"/>
<path d="M5 4.00007L2.72333 2.86173C2.64709 2.82367 2.56239 2.80572 2.47726 2.8096C2.39213 2.81348 2.30941 2.83904 2.23694 2.88388C2.16447 2.92871 2.10467 2.99132 2.0632 3.06576C2.02173 3.14021 1.99997 3.22402 2 3.30923V9.6909C1.99997 9.77611 2.02173 9.85992 2.0632 9.93437C2.10467 10.0088 2.16447 10.0714 2.23694 10.1163C2.30941 10.1611 2.39213 10.1867 2.47726 10.1905C2.56239 10.1944 2.64709 10.1765 2.72333 10.1384L5 9.00007V4.00007Z" fill="#333333"/>
</svg>
