<svg width="20" height="20" viewBox="0 0 20 20" fill="none" xmlns="http://www.w3.org/2000/svg">
<path d="M4.80368 2.58093C4.98425 2.42479 5.09539 2.20331 5.11266 1.96521C5.12993 1.72712 5.05191 1.49192 4.89576 1.31135C4.73961 1.13078 4.51813 1.01964 4.28004 1.00237C4.04195 0.9851 3.80675 1.06312 3.62618 1.21927L2.90701 1.84177C2.71388 2.00872 2.55848 2.21485 2.45111 2.44646C2.34375 2.67807 2.28687 2.92987 2.28427 3.18515C2.28167 3.44042 2.3334 3.69333 2.43603 3.92708C2.53865 4.16083 2.68982 4.37008 2.87951 4.54093L4.19868 5.72927L3.53118 6.32927C3.3537 6.48895 3.24693 6.71259 3.23435 6.951C3.22812 7.06904 3.2452 7.18716 3.28462 7.29861C3.32404 7.41005 3.38503 7.51264 3.46409 7.60052C3.54316 7.68839 3.63876 7.75984 3.74544 7.81077C3.85212 7.86169 3.96778 7.89111 4.08583 7.89734C4.32423 7.90992 4.55787 7.82728 4.73534 7.6676L5.40284 7.06677C5.59025 6.89798 5.74009 6.69169 5.84266 6.46128C5.94523 6.23087 5.99823 5.98148 5.99823 5.72927C5.99823 5.47706 5.94523 5.22766 5.84266 4.99725C5.74009 4.76684 5.59025 4.56055 5.40284 4.39177L4.08368 3.2026L4.80368 2.58093ZM10.7628 1.31177C10.9189 1.49225 10.997 1.72733 10.9798 1.96533C10.9626 2.20332 10.8516 2.42475 10.6712 2.58093L9.95034 3.20343L11.2695 4.39093C11.4569 4.55972 11.6068 4.76601 11.7093 4.99642C11.8119 5.22683 11.8649 5.47622 11.8649 5.72843C11.8649 5.98064 11.8119 6.23004 11.7093 6.46045C11.6068 6.69086 11.4569 6.89715 11.2695 7.06593L10.6028 7.6676C10.4255 7.82739 10.1919 7.91018 9.9535 7.89776C9.71509 7.88533 9.49139 7.77871 9.33159 7.60135C9.1718 7.42399 9.08901 7.19041 9.10144 6.952C9.11386 6.7136 9.22048 6.48989 9.39784 6.3301L10.0645 5.72927L8.74618 4.54093C8.55635 4.37007 8.40506 4.16078 8.30235 3.92695C8.19964 3.69312 8.14787 3.44011 8.15047 3.18473C8.15307 2.92935 8.20999 2.67744 8.31744 2.44575C8.42489 2.21406 8.58041 2.00789 8.77368 1.84093L9.49368 1.21927C9.67416 1.06318 9.90924 0.985151 10.1472 1.00234C10.3852 1.01953 10.6067 1.13053 10.7628 1.31093V1.31177ZM16.6295 1.31177C16.7856 1.49225 16.8636 1.72733 16.8464 1.96533C16.8292 2.20332 16.7182 2.42475 16.5378 2.58093L15.817 3.20343L17.1362 4.39093C17.3236 4.55972 17.4734 4.76601 17.576 4.99642C17.6786 5.22683 17.7316 5.47622 17.7316 5.72843C17.7316 5.98064 17.6786 6.23004 17.576 6.46045C17.4734 6.69086 17.3236 6.89715 17.1362 7.06593L16.4695 7.6676C16.3817 7.74672 16.2791 7.80777 16.1677 7.84726C16.0563 7.88675 15.9382 7.90391 15.8202 7.89776C15.5818 7.88533 15.3581 7.77871 15.1983 7.60135C15.0385 7.42399 14.9557 7.19041 14.9681 6.952C14.9805 6.7136 15.0871 6.48989 15.2645 6.3301L15.932 5.72927L14.6128 4.54093C14.423 4.37007 14.2717 4.16078 14.169 3.92695C14.0663 3.69312 14.0145 3.44011 14.0171 3.18473C14.0197 2.92935 14.0767 2.67744 14.1841 2.44575C14.2916 2.21406 14.4471 2.00789 14.6403 1.84093L15.3603 1.21927C15.5408 1.06318 15.7759 0.985151 16.0139 1.00234C16.2519 1.01953 16.4733 1.13053 16.6295 1.31093V1.31177Z" fill="#333333"/>
<path fill-rule="evenodd" clip-rule="evenodd" d="M1 9.875C1 9.60978 1.10536 9.35543 1.29289 9.16789C1.48043 8.98036 1.73478 8.875 2 8.875H18C18.2652 8.875 18.5196 8.98036 18.7071 9.16789C18.8946 9.35543 19 9.60978 19 9.875V16.875C19 17.1402 18.8946 17.3946 18.7071 17.5821C18.5196 17.7696 18.2652 17.875 18 17.875H16.75V18C16.75 18.2652 16.6446 18.5196 16.4571 18.7071C16.2696 18.8946 16.0152 19 15.75 19H15.5C15.2348 19 14.9804 18.8946 14.7929 18.7071C14.6054 18.5196 14.5 18.2652 14.5 18V17.875H5.5V18C5.5 18.2652 5.39464 18.5196 5.20711 18.7071C5.01957 18.8946 4.76522 19 4.5 19H4.25C3.98478 19 3.73043 18.8946 3.54289 18.7071C3.35536 18.5196 3.25 18.2652 3.25 18V17.875H2C1.73478 17.875 1.48043 17.7696 1.29289 17.5821C1.10536 17.3946 1 17.1402 1 16.875V9.875ZM9.875 11.125C9.60978 11.125 9.35543 11.2304 9.16789 11.4179C8.98036 11.6054 8.875 11.8598 8.875 12.125V14.625C8.875 14.8902 8.98036 15.1446 9.16789 15.3321C9.35543 15.5196 9.60978 15.625 9.875 15.625H10.125C10.3902 15.625 10.6446 15.5196 10.8321 15.3321C11.0196 15.1446 11.125 14.8902 11.125 14.625V12.125C11.125 11.8598 11.0196 11.6054 10.8321 11.4179C10.6446 11.2304 10.3902 11.125 10.125 11.125H9.875ZM4.25 11.125C3.98478 11.125 3.73043 11.2304 3.54289 11.4179C3.35536 11.6054 3.25 11.8598 3.25 12.125V14.625C3.25 14.8902 3.35536 15.1446 3.54289 15.3321C3.73043 15.5196 3.98478 15.625 4.25 15.625H4.5C4.76522 15.625 5.01957 15.5196 5.20711 15.3321C5.39464 15.1446 5.5 14.8902 5.5 14.625V12.125C5.5 11.8598 5.39464 11.6054 5.20711 11.4179C5.01957 11.2304 4.76522 11.125 4.5 11.125H4.25ZM14.5 12.125C14.5 11.8598 14.6054 11.6054 14.7929 11.4179C14.9804 11.2304 15.2348 11.125 15.5 11.125H15.75C16.0152 11.125 16.2696 11.2304 16.4571 11.4179C16.6446 11.6054 16.75 11.8598 16.75 12.125V14.625C16.75 14.8902 16.6446 15.1446 16.4571 15.3321C16.2696 15.5196 16.0152 15.625 15.75 15.625H15.5C15.2348 15.625 14.9804 15.5196 14.7929 15.3321C14.6054 15.1446 14.5 14.8902 14.5 14.625V12.125Z" fill="#333333"/>
</svg>
