<svg width="20" height="20" viewBox="0 0 20 20" fill="none" xmlns="http://www.w3.org/2000/svg">
<path d="M13.2542 3C14.2437 3.00011 15.198 3.36698 15.9328 4.02973C16.6676 4.69249 17.1307 5.60407 17.2325 6.58833L18 14H15.6175V13.9958H2L2.03583 13.8333C2.30529 12.6241 2.857 11.4957 3.64589 10.5404C4.43479 9.58505 5.43849 8.82993 6.575 8.33667C6.7493 8.88065 7.05133 9.37499 7.45583 9.77833C7.93174 10.254 8.53148 10.5867 9.18696 10.7387C9.84245 10.8906 10.5274 10.8558 11.1641 10.638C11.8007 10.4203 12.3636 10.0284 12.7887 9.50683C13.2138 8.98528 13.4842 8.35498 13.5692 7.6875H14.7775L14.6775 6.9375C14.621 6.51274 14.4121 6.12295 14.0898 5.84061C13.7674 5.55828 13.3535 5.40259 12.925 5.4025L12.9242 5.4H6.2C5.88174 5.4 5.57652 5.27357 5.35147 5.04853C5.12643 4.82348 5 4.51826 5 4.2C5 3.88174 5.12643 3.57652 5.35147 3.35147C5.57652 3.12643 5.88174 3 6.2 3H13.2542Z" fill="#333333"/>
<path d="M8.06167 8.0375C8.03939 7.98364 8.01938 7.92887 8.00167 7.87333C8.56043 7.74964 9.13104 7.68732 9.70333 7.6875H12.0483C11.9616 8.0775 11.7656 8.43474 11.4833 8.7175C11.2396 8.96177 10.9393 9.14209 10.6091 9.24246C10.2789 9.34283 9.92906 9.36015 9.59058 9.29288C9.25211 9.22562 8.93547 9.07584 8.66876 8.85685C8.40205 8.63786 8.19352 8.35642 8.06167 8.0375ZM18 16.6V15.5H2V16.6C2 16.8208 2.17917 17 2.4 17H17.6C17.7061 17 17.8078 16.9579 17.8828 16.8828C17.9579 16.8078 18 16.7061 18 16.6Z" fill="#333333"/>
</svg>
