<svg width="20" height="20" viewBox="0 0 20 20" fill="none" xmlns="http://www.w3.org/2000/svg">
<path fill-rule="evenodd" clip-rule="evenodd" d="M2.34085 4.04175H17.6584C17.7148 4.04172 17.7701 4.05762 17.8179 4.08761C17.8657 4.1176 17.9041 4.16047 17.9287 4.2113C17.9532 4.26213 17.9629 4.31884 17.9567 4.37494C17.9504 4.43103 17.9285 4.48423 17.8934 4.52842L10.2342 14.1626C10.2061 14.198 10.1704 14.2266 10.1297 14.2462C10.089 14.2659 10.0444 14.2761 9.99919 14.2761C9.95399 14.2761 9.90939 14.2659 9.8687 14.2462C9.828 14.2266 9.79228 14.198 9.76419 14.1626L2.10585 4.52925C2.07048 4.48507 2.04833 4.4318 2.04195 4.37557C2.03557 4.31934 2.04523 4.26245 2.0698 4.21148C2.09437 4.1605 2.13286 4.11752 2.18082 4.08748C2.22879 4.05745 2.28426 4.0416 2.34085 4.04175ZM6.99419 6.75008H13.0059C13.0623 6.75006 13.1176 6.76595 13.1654 6.79594C13.2132 6.82593 13.2516 6.86881 13.2762 6.91963C13.3007 6.97046 13.3104 7.02718 13.3042 7.08327C13.2979 7.13937 13.276 7.19256 13.2409 7.23675L10.235 11.0176C10.2069 11.053 10.1712 11.0816 10.1305 11.1012C10.0898 11.1209 10.0452 11.1311 10 11.1311C9.95483 11.1311 9.91022 11.1209 9.86953 11.1012C9.82884 11.0816 9.79311 11.053 9.76502 11.0176L6.76002 7.23675C6.72494 7.19262 6.70301 7.1395 6.69674 7.08348C6.69046 7.02746 6.7001 6.9708 6.72454 6.92001C6.74898 6.86921 6.78724 6.82633 6.83493 6.79627C6.88262 6.76622 6.93781 6.75021 6.99419 6.75008Z" fill="#333333"/>
<path fill-rule="evenodd" clip-rule="evenodd" d="M10 11.75C10.2652 11.75 10.5196 11.8554 10.7071 12.0429C10.8946 12.2304 11 12.4848 11 12.75V17.0625C11 17.3277 10.8946 17.5821 10.7071 17.7696C10.5196 17.9571 10.2652 18.0625 10 18.0625C9.73478 18.0625 9.48043 17.9571 9.29289 17.7696C9.10536 17.5821 9 17.3277 9 17.0625V12.75C9 12.4848 9.10536 12.2304 9.29289 12.0429C9.48043 11.8554 9.73478 11.75 10 11.75Z" fill="#333333"/>
<path fill-rule="evenodd" clip-rule="evenodd" d="M6 17.0626C6 16.9313 6.02587 16.8012 6.07612 16.6799C6.12638 16.5586 6.20003 16.4483 6.29289 16.3555C6.38575 16.2626 6.49599 16.189 6.61732 16.1387C6.73864 16.0885 6.86868 16.0626 7 16.0626H13C13.2652 16.0626 13.5196 16.168 13.7071 16.3555C13.8946 16.543 14 16.7974 14 17.0626C14 17.3278 13.8946 17.5822 13.7071 17.7697C13.5196 17.9572 13.2652 18.0626 13 18.0626H7C6.73478 18.0626 6.48043 17.9572 6.29289 17.7697C6.10536 17.5822 6 17.3278 6 17.0626ZM15.1258 2.1651C15.281 2.28955 15.3803 2.47051 15.402 2.6682C15.4238 2.86588 15.3661 3.0641 15.2417 3.21927L12.8083 6.25093C12.6838 6.40608 12.5027 6.50541 12.3049 6.52705C12.1072 6.5487 11.9089 6.49089 11.7537 6.36635C11.5986 6.24181 11.4993 6.06073 11.4776 5.86296C11.456 5.66519 11.5138 5.46692 11.6383 5.31177L14.0717 2.28093C14.1961 2.1258 14.3771 2.02646 14.5748 2.00473C14.7725 1.98301 14.9707 2.0407 15.1258 2.1651Z" fill="#333333"/>
</svg>
