<svg width="16" height="16" xmlns="http://www.w3.org/2000/svg"><path fill-rule="evenodd" clip-rule="evenodd" d="M3.22 4.538a1.62 1.62 0 0 0-1.62 1.62v5.782c0 .895.725 1.62 1.62 1.62h9.56a1.62 1.62 0 0 0 1.62-1.62v-.74h-2.39a1.458 1.458 0 0 1-1.458-1.458V8.356c0-.805.653-1.458 1.458-1.458h2.39v-.74a1.62 1.62 0 0 0-1.62-1.62H3.22zM14.4 8.194h-2.39a.162.162 0 0 0-.162.162v1.386c0 .09.073.162.162.162h2.39v-1.71z" fill="#292f37"/><mask id="a" fill="#fff"><rect width="8.791" height="5.41" rx=".81" transform="matrix(.99084 -.13503 .12858 .9917 3.465 2.387)"/></mask><rect width="8.791" height="5.41" rx=".81" transform="matrix(.99084 -.13503 .12858 .9917 3.465 2.387)" stroke="#2D3137" stroke-width="2.592" mask="url(#a)"/></svg>
