<svg width="20" height="20" viewBox="0 0 20 20" fill="none" xmlns="http://www.w3.org/2000/svg">
<path d="M5 2C4.73478 2 4.48043 2.10536 4.29289 2.29289C4.10536 2.48043 4 2.73478 4 3V14C4 14.1313 4.02587 14.2614 4.07612 14.3827C4.12638 14.504 4.20003 14.6142 4.29289 14.7071C4.38575 14.8 4.49599 14.8736 4.61732 14.9239C4.73864 14.9741 4.86868 15 5 15H7C7.26522 15 7.51957 14.8946 7.70711 14.7071C7.89464 14.5196 8 14.2652 8 14V3C8 2.73478 7.89464 2.48043 7.70711 2.29289C7.51957 2.10536 7.26522 2 7 2H5Z" fill="#333333"/>
<path fill-rule="evenodd" clip-rule="evenodd" d="M2 6C2 5.26 2.4025 4.61333 3 4.2675V14C3 14.5304 3.21071 15.0391 3.58579 15.4142C3.96086 15.7893 4.46957 16 5 16H7C7.53043 16 8.03914 15.7893 8.41421 15.4142C8.78929 15.0391 9 14.5304 9 14V4H16C16.5304 4 17.0391 4.21071 17.4142 4.58579C17.7893 4.96086 18 5.46957 18 6V16C18 16.5304 17.7893 17.0391 17.4142 17.4142C17.0391 17.7893 16.5304 18 16 18H4C3.46957 18 2.96086 17.7893 2.58579 17.4142C2.21071 17.0391 2 16.5304 2 16V6ZM11.4 6C11.2939 6 11.1922 6.04214 11.1172 6.11716C11.0421 6.19217 11 6.29391 11 6.4V9.6C11 9.82083 11.1792 10 11.4 10H15.6C15.7061 10 15.8078 9.95786 15.8828 9.88284C15.9579 9.80783 16 9.70609 16 9.6V6.4C16 6.29391 15.9579 6.19217 15.8828 6.11716C15.8078 6.04214 15.7061 6 15.6 6H11.4ZM11 11.4C11 11.2939 11.0421 11.1922 11.1172 11.1172C11.1922 11.0421 11.2939 11 11.4 11H12.6C12.7061 11 12.8078 11.0421 12.8828 11.1172C12.9579 11.1922 13 11.2939 13 11.4V12.6C13 12.7061 12.9579 12.8078 12.8828 12.8828C12.8078 12.9579 12.7061 13 12.6 13H11.4C11.2939 13 11.1922 12.9579 11.1172 12.8828C11.0421 12.8078 11 12.7061 11 12.6V11.4ZM14.4 11C14.2939 11 14.1922 11.0421 14.1172 11.1172C14.0421 11.1922 14 11.2939 14 11.4V12.6C14 12.8208 14.1792 13 14.4 13H15.6C15.7061 13 15.8078 12.9579 15.8828 12.8828C15.9579 12.8078 16 12.7061 16 12.6V11.4C16 11.2939 15.9579 11.1922 15.8828 11.1172C15.8078 11.0421 15.7061 11 15.6 11H14.4ZM11 14.4C11 14.2939 11.0421 14.1922 11.1172 14.1172C11.1922 14.0421 11.2939 14 11.4 14H12.6C12.6525 14 12.7045 14.0103 12.7531 14.0304C12.8016 14.0506 12.8457 14.08 12.8828 14.1172C12.92 14.1543 12.9494 14.1984 12.9696 14.2469C12.9897 14.2955 13 14.3475 13 14.4V15.6C13 15.6525 12.9897 15.7045 12.9696 15.7531C12.9494 15.8016 12.92 15.8457 12.8828 15.8828C12.8457 15.92 12.8016 15.9494 12.7531 15.9696C12.7045 15.9897 12.6525 16 12.6 16H11.4C11.2939 16 11.1922 15.9579 11.1172 15.8828C11.0421 15.8078 11 15.7061 11 15.6V14.4ZM14.4 14C14.2939 14 14.1922 14.0421 14.1172 14.1172C14.0421 14.1922 14 14.2939 14 14.4V15.6C14 15.8208 14.1792 16 14.4 16H15.6C15.7061 16 15.8078 15.9579 15.8828 15.8828C15.9579 15.8078 16 15.7061 16 15.6V14.4C16 14.2939 15.9579 14.1922 15.8828 14.1172C15.8078 14.0421 15.7061 14 15.6 14H14.4Z" fill="#333333"/>
</svg>
