<svg width="20" height="20" viewBox="0 0 20 20" fill="none" xmlns="http://www.w3.org/2000/svg">
<path d="M11.5162 1.125C11.1914 1.04187 10.8574 0.999876 10.522 1H9.47871C9.13871 1 8.80788 1.0425 8.49121 1.12333C8.85371 2.2025 9.23288 3.10333 9.60204 3.98167C9.76038 4.35667 9.91538 4.72833 10.0687 5.1075C10.572 4.28083 10.9354 3.31 11.1837 2.46167C11.3132 2.02067 11.4241 1.57445 11.5162 1.12417V1.125ZM7.55954 1.49C6.97516 1.80938 6.4798 2.26968 6.11845 2.82909C5.75711 3.3885 5.54121 4.02931 5.49038 4.69333L4.92871 12H6.29204L6.00038 19H10.4754V11.4458L6.35621 10.7167L6.53121 9.73167L10.4154 10.42C10.2012 8.4625 9.76538 7.07 9.24038 5.73083C9.07038 5.29917 8.88788 4.86583 8.69954 4.4175C8.32954 3.53667 7.93454 2.59583 7.55954 1.49ZM11.4754 19V11.395L13.7037 10.7017L13.4062 9.74667L11.4154 10.3658C11.2736 8.96248 10.9659 7.5809 10.4987 6.25C11.3079 5.18667 11.8262 3.82417 12.1429 2.74333C12.2829 2.26833 12.3862 1.83833 12.4595 1.49917C13.0393 1.81997 13.5302 2.27982 13.8882 2.83736C14.2462 3.39491 14.46 4.03268 14.5104 4.69333L15.072 12H13.7087L14.0004 19H11.4754Z" fill="#333333"/>
</svg>
