<svg width="20" height="20" viewBox="0 0 20 20" fill="none" xmlns="http://www.w3.org/2000/svg">
<path d="M12.8125 11.125C13.0341 11.125 13.2535 11.0814 13.4583 10.9965C13.663 10.9117 13.849 10.7874 14.0057 10.6307C14.1624 10.474 14.2867 10.288 14.3715 10.0833C14.4564 9.87854 14.5 9.65911 14.5 9.4375C14.5 9.21589 14.4564 8.99646 14.3715 8.79172C14.2867 8.58698 14.1624 8.40096 14.0057 8.24426C13.849 8.08756 13.663 7.96326 13.4583 7.87845C13.2535 7.79365 13.0341 7.75 12.8125 7.75C12.3649 7.75 11.9357 7.92779 11.6193 8.24426C11.3028 8.56072 11.125 8.98995 11.125 9.4375C11.125 9.88505 11.3028 10.3143 11.6193 10.6307C11.9357 10.9472 12.3649 11.125 12.8125 11.125Z" fill="#333333"/>
<path fill-rule="evenodd" clip-rule="evenodd" d="M2.125 3.25C1.82663 3.25 1.54048 3.36853 1.3295 3.5795C1.11853 3.79048 1 4.07663 1 4.375V14.5C1 15.1217 1.50333 15.625 2.125 15.625H3.25C3.25 15.7727 3.2791 15.919 3.33564 16.0555C3.39217 16.192 3.47504 16.316 3.5795 16.4205C3.68397 16.525 3.80799 16.6078 3.94448 16.6644C4.08097 16.7209 4.22726 16.75 4.375 16.75C4.52274 16.75 4.66903 16.7209 4.80552 16.6644C4.94201 16.6078 5.06603 16.525 5.17049 16.4205C5.27496 16.316 5.35783 16.192 5.41436 16.0555C5.4709 15.919 5.5 15.7727 5.5 15.625H13.375C13.375 15.9234 13.4935 16.2095 13.7045 16.4205C13.9155 16.6315 14.2016 16.75 14.5 16.75C14.7984 16.75 15.0845 16.6315 15.2955 16.4205C15.5065 16.2095 15.625 15.9234 15.625 15.625H16.75C17.0484 15.625 17.3345 15.5065 17.5455 15.2955C17.7565 15.0845 17.875 14.7984 17.875 14.5V13.375H18.4375C18.5867 13.375 18.7298 13.3157 18.8352 13.2102C18.9407 13.1048 19 12.9617 19 12.8125V11.6875C19 11.5383 18.9407 11.3952 18.8352 11.2898C18.7298 11.1843 18.5867 11.125 18.4375 11.125H17.875V7.75H18.4375C18.5114 7.75 18.5845 7.73545 18.6528 7.70718C18.721 7.67891 18.783 7.63748 18.8352 7.58525C18.8875 7.53301 18.9289 7.471 18.9572 7.40276C18.9854 7.33451 19 7.26137 19 7.1875V6.0625C19 5.91332 18.9407 5.77024 18.8352 5.66475C18.7298 5.55926 18.5867 5.5 18.4375 5.5H17.875V4.375C17.875 4.07663 17.7565 3.79048 17.5455 3.5795C17.3345 3.36853 17.0484 3.25 16.75 3.25H2.125ZM3.25 6.0625C3.25 5.75167 3.50167 5.5 3.8125 5.5H4.9375C5.24833 5.5 5.5 5.75167 5.5 6.0625V12.8125C5.5 12.8864 5.48545 12.9595 5.45718 13.0278C5.42891 13.096 5.38748 13.158 5.33525 13.2102C5.28301 13.2625 5.22101 13.3039 5.15276 13.3322C5.08451 13.3605 5.01137 13.375 4.9375 13.375H3.8125C3.73863 13.375 3.66549 13.3605 3.59724 13.3322C3.52899 13.3039 3.46699 13.2625 3.41475 13.2102C3.36252 13.158 3.32109 13.096 3.29282 13.0278C3.26455 12.9595 3.25 12.8864 3.25 12.8125V6.0625ZM12.8125 13.375C13.8568 13.375 14.8583 12.9602 15.5967 12.2217C16.3352 11.4833 16.75 10.4818 16.75 9.4375C16.75 8.39321 16.3352 7.39169 15.5967 6.65327C14.8583 5.91484 13.8568 5.5 12.8125 5.5C11.7682 5.5 10.7667 5.91484 10.0283 6.65327C9.28984 7.39169 8.875 8.39321 8.875 9.4375C8.875 10.4818 9.28984 11.4833 10.0283 12.2217C10.7667 12.9602 11.7682 13.375 12.8125 13.375Z" fill="#333333"/>
</svg>
