<svg width="20" height="20" viewBox="0 0 20 20" fill="none" xmlns="http://www.w3.org/2000/svg">
<path d="M10.4255 2.04988C10.4764 2.00824 10.535 1.97704 10.5979 1.95806C10.6608 1.93908 10.7269 1.9327 10.7923 1.93928C10.8577 1.94586 10.9212 1.96527 10.9791 1.9964C11.037 2.02753 11.0882 2.06978 11.1297 2.12071C11.3505 2.39155 11.6297 2.84988 11.713 3.35821C11.7572 3.61905 11.753 3.91405 11.6422 4.20405C11.5191 4.51558 11.2976 4.77836 11.0114 4.95238C10.8564 5.05155 10.7964 5.14155 10.7714 5.20238C10.7425 5.27614 10.7367 5.35691 10.7547 5.43405C10.7955 5.64238 10.9489 5.87488 11.0964 6.02155C11.1901 6.11548 11.2426 6.24279 11.2425 6.37547C11.2423 6.50815 11.1895 6.63534 11.0955 6.72905C11.0016 6.82275 10.8743 6.87531 10.7416 6.87516C10.6089 6.875 10.4817 6.82214 10.388 6.72821C10.1605 6.49988 9.8647 6.09738 9.77304 5.62238C9.71733 5.35201 9.74344 5.07118 9.84804 4.81571C9.96637 4.53571 10.178 4.29905 10.473 4.10988C10.6155 4.01821 10.6772 3.92655 10.7072 3.84738C10.7427 3.74275 10.7496 3.63056 10.7272 3.52238C10.6805 3.24238 10.5089 2.94155 10.3555 2.75405C10.2716 2.65147 10.2318 2.51977 10.245 2.38789C10.2581 2.25601 10.323 2.1339 10.4255 2.04988ZM4.79137 4.60738C4.83343 4.41232 4.91413 4.22766 5.02872 4.06429C5.1433 3.90093 5.28945 3.76217 5.45853 3.65621C5.62762 3.55024 5.81622 3.47922 6.0132 3.44733C6.21018 3.41545 6.41155 3.42334 6.60543 3.47054C6.79931 3.51774 6.98177 3.60331 7.14205 3.72217C7.30232 3.84104 7.43716 3.99081 7.53862 4.16264C7.64007 4.33447 7.70607 4.52488 7.73274 4.72263C7.7594 4.92039 7.74619 5.12148 7.69387 5.31405L6.27554 11.1424C6.2747 11.1449 6.27554 11.1474 6.27804 11.1474C6.28054 11.1482 6.2822 11.1507 6.28137 11.1532L4.7597 17.404C4.70804 17.619 4.49054 17.7524 4.28304 17.6757C3.5739 17.412 2.97226 16.9205 2.57234 16.2783C2.17243 15.636 1.99684 14.8792 2.07307 14.1265C2.14929 13.3738 2.47303 12.6676 2.99358 12.1185C3.51413 11.5695 4.20209 11.2086 4.9497 11.0924L4.97304 11.089C5.05825 11.0781 5.13829 11.0421 5.20298 10.9855C5.26768 10.929 5.3141 10.8545 5.33637 10.7715L6.7222 5.07738C6.7491 4.95154 6.72585 4.82018 6.6574 4.71122C6.58895 4.60226 6.4807 4.5243 6.35566 4.4939C6.23063 4.46351 6.09867 4.48309 5.98784 4.54848C5.87702 4.61387 5.79607 4.7199 5.7622 4.84405L5.71637 5.03488C5.70396 5.08594 5.68161 5.13405 5.6506 5.17647C5.61959 5.21888 5.58053 5.25478 5.53565 5.2821C5.49076 5.30941 5.44094 5.32762 5.38901 5.33568C5.33709 5.34373 5.28409 5.34148 5.23304 5.32905L5.03804 5.28155C4.93507 5.2563 4.84635 5.19121 4.79134 5.10058C4.73634 5.00996 4.71957 4.9012 4.7447 4.79821L4.79137 4.60738ZM7.56637 7.99988C7.49222 7.99986 7.41899 8.01634 7.35199 8.04812C7.285 8.0799 7.2259 8.12618 7.179 8.18361C7.1321 8.24104 7.09856 8.30819 7.08081 8.38019C7.06306 8.45218 7.06154 8.52723 7.07637 8.59988L7.32804 9.84071H17.738L17.9897 8.59905C18.0044 8.52645 18.0028 8.4515 17.985 8.37961C17.9671 8.30772 17.9336 8.24068 17.8867 8.18335C17.8398 8.12601 17.7808 8.07981 17.7138 8.04808C17.6469 8.01635 17.5738 7.99989 17.4997 7.99988H7.56637ZM8.45054 15.3749L7.53137 10.8407H17.5347L16.6147 15.3749H8.45054ZM16.4122 16.3749H8.65387L8.9022 17.5999C8.92526 17.7128 8.98662 17.8143 9.07591 17.8872C9.1652 17.9601 9.27694 17.9999 9.3922 17.9999H15.6739C15.7891 17.9999 15.9009 17.9601 15.9902 17.8872C16.0795 17.8143 16.1408 17.7128 16.1639 17.5999L16.4122 16.3749ZM14.7105 2.12071C14.6266 2.01805 14.5052 1.95296 14.3732 1.93975C14.2413 1.92655 14.1094 1.96631 14.0068 2.0503C13.9041 2.13428 13.839 2.25561 13.8258 2.38759C13.8126 2.51956 13.8524 2.65138 13.9364 2.75405C14.0897 2.94155 14.2614 3.24238 14.308 3.52238C14.3307 3.63049 14.3241 3.74268 14.2889 3.84738C14.2589 3.92655 14.1972 4.01821 14.0547 4.10988C13.7589 4.29821 13.5472 4.53571 13.4297 4.81571C13.313 5.09405 13.3072 5.37405 13.3547 5.62238C13.4455 6.09738 13.7422 6.49988 13.9697 6.72821C14.016 6.77529 14.0711 6.81274 14.1319 6.8384C14.1927 6.86407 14.258 6.87744 14.324 6.87775C14.39 6.87805 14.4554 6.86529 14.5165 6.84019C14.5775 6.81509 14.633 6.77816 14.6797 6.73151C14.7264 6.68487 14.7634 6.62944 14.7885 6.56843C14.8137 6.50741 14.8265 6.44202 14.8263 6.37602C14.8261 6.31001 14.8128 6.24471 14.7872 6.18387C14.7616 6.12303 14.7242 6.06786 14.6772 6.02155C14.5305 5.87488 14.3772 5.64321 14.3364 5.43405C14.3181 5.357 14.3236 5.27623 14.3522 5.20238C14.3772 5.14155 14.438 5.05155 14.593 4.95238C14.8997 4.75571 15.1097 4.49988 15.223 4.20405C15.3339 3.91405 15.338 3.61905 15.2947 3.35821C15.2105 2.84988 14.9322 2.39155 14.7105 2.12071Z" fill="#333333"/>
</svg>
