<svg width="20" height="20" viewBox="0 0 20 20" fill="none" xmlns="http://www.w3.org/2000/svg">
<path d="M4.3873 6.25005C4.3873 5.77266 4.57695 5.31482 4.91451 4.97726C5.25208 4.63969 5.70991 4.45005 6.1873 4.45005H9.1248C9.60219 4.45005 10.06 4.63969 10.3976 4.97726C10.7352 5.31482 10.9248 5.77266 10.9248 6.25005V6.43505C9.90648 6.68396 8.99048 7.24272 8.30314 8.03424C7.6158 8.82576 7.19099 9.81105 7.0873 10.8542C7.0598 11.1292 7.28647 11.3534 7.5623 11.3534H16.6873C16.9631 11.3534 17.1898 11.1284 17.1623 10.8534C17.0587 9.81029 16.6339 8.82506 15.9465 8.03366C15.2592 7.24225 14.3431 6.68369 13.3248 6.43505V6.25005C13.3248 5.13614 12.8823 4.06785 12.0947 3.2802C11.307 2.49255 10.2387 2.05005 9.1248 2.05005H6.1873C5.0734 2.05005 4.00511 2.49255 3.21746 3.2802C2.4298 4.06785 1.9873 5.13614 1.9873 6.25005V16.8442C1.9873 17.0018 2.01834 17.1578 2.07865 17.3034C2.13895 17.449 2.22735 17.5813 2.33878 17.6927C2.45021 17.8042 2.58249 17.8926 2.72808 17.9529C2.87368 18.0132 3.02972 18.0442 3.1873 18.0442C3.34489 18.0442 3.50093 18.0132 3.64652 17.9529C3.79212 17.8926 3.9244 17.8042 4.03583 17.6927C4.14726 17.5813 4.23565 17.449 4.29596 17.3034C4.35627 17.1578 4.3873 17.0018 4.3873 16.8442V6.25005Z" fill="#333333"/>
<path d="M13.1567 13.7808C13.1567 14.046 13.0513 14.3003 12.8638 14.4879C12.6762 14.6754 12.4219 14.7808 12.1567 14.7808C11.8915 14.7808 11.6371 14.6754 11.4496 14.4879C11.262 14.3003 11.1567 14.046 11.1567 13.7808C11.1567 13.5155 11.262 13.2612 11.4496 13.0737C11.6371 12.8861 11.8915 12.7808 12.1567 12.7808C12.4219 12.7808 12.6762 12.8861 12.8638 13.0737C13.0513 13.2612 13.1567 13.5155 13.1567 13.7808ZM12.1567 18.0216C12.4219 18.0216 12.6762 17.9162 12.8638 17.7287C13.0513 17.5412 13.1567 17.2868 13.1567 17.0216C13.1567 16.7564 13.0513 16.502 12.8638 16.3145C12.6762 16.127 12.4219 16.0216 12.1567 16.0216C11.8915 16.0216 11.6371 16.127 11.4496 16.3145C11.262 16.502 11.1567 16.7564 11.1567 17.0216C11.1567 17.2868 11.262 17.5412 11.4496 17.7287C11.6371 17.9162 11.8915 18.0216 12.1567 18.0216ZM16.6567 13.7808C16.6567 13.9121 16.6308 14.0421 16.5805 14.1634C16.5303 14.2848 16.4566 14.395 16.3638 14.4879C16.2709 14.5807 16.1607 14.6544 16.0394 14.7046C15.918 14.7549 15.788 14.7808 15.6567 14.7808C15.5253 14.7808 15.3953 14.7549 15.274 14.7046C15.1527 14.6544 15.0424 14.5807 14.9496 14.4879C14.8567 14.395 14.783 14.2848 14.7328 14.1634C14.6825 14.0421 14.6567 13.9121 14.6567 13.7808C14.6567 13.5155 14.762 13.2612 14.9496 13.0737C15.1371 12.8861 15.3914 12.7808 15.6567 12.7808C15.9219 12.7808 16.1762 12.8861 16.3638 13.0737C16.5513 13.2612 16.6567 13.5155 16.6567 13.7808ZM16.4375 18.0216C16.7027 18.0216 16.9571 17.9162 17.1446 17.7287C17.3321 17.5412 17.4375 17.2868 17.4375 17.0216C17.4375 16.7564 17.3321 16.502 17.1446 16.3145C16.9571 16.127 16.7027 16.0216 16.4375 16.0216C16.1723 16.0216 15.9179 16.127 15.7304 16.3145C15.5429 16.502 15.4375 16.7564 15.4375 17.0216C15.4375 17.2868 15.5429 17.5412 15.7304 17.7287C15.9179 17.9162 16.1723 18.0216 16.4375 18.0216ZM9.65667 13.7808C9.65667 13.9121 9.6308 14.0421 9.58055 14.1634C9.53029 14.2848 9.45663 14.395 9.36377 14.4879C9.27092 14.5807 9.16068 14.6544 9.03935 14.7046C8.91802 14.7549 8.78799 14.7808 8.65667 14.7808C8.52534 14.7808 8.39531 14.7549 8.27398 14.7046C8.15266 14.6544 8.04242 14.5807 7.94956 14.4879C7.8567 14.395 7.78304 14.2848 7.73279 14.1634C7.68253 14.0421 7.65667 13.9121 7.65667 13.7808C7.65667 13.5155 7.76202 13.2612 7.94956 13.0737C8.1371 12.8861 8.39145 12.7808 8.65667 12.7808C8.92188 12.7808 9.17624 12.8861 9.36377 13.0737C9.55131 13.2612 9.65667 13.5155 9.65667 13.7808ZM7.875 18.0216C8.14022 18.0216 8.39457 17.9162 8.58211 17.7287C8.76964 17.5412 8.875 17.2868 8.875 17.0216C8.875 16.7564 8.76964 16.502 8.58211 16.3145C8.39457 16.127 8.14022 16.0216 7.875 16.0216C7.60978 16.0216 7.35543 16.127 7.16789 16.3145C6.98036 16.502 6.875 16.7564 6.875 17.0216C6.875 17.2868 6.98036 17.5412 7.16789 17.7287C7.35543 17.9162 7.60978 18.0216 7.875 18.0216Z" fill="#333333"/>
</svg>
