<svg width="20" height="20" viewBox="0 0 20 20" fill="none" xmlns="http://www.w3.org/2000/svg">
<path d="M17.0599 16.8401C17.0967 16.8776 17.1405 16.9075 17.1889 16.928C17.2373 16.9485 17.2892 16.9594 17.3418 16.9598C17.3943 16.9603 17.4464 16.9504 17.4952 16.9307C17.5439 16.911 17.5882 16.8819 17.6257 16.8451L18.1241 16.3534C18.1995 16.2791 18.2424 16.1779 18.2434 16.072C18.2443 15.966 18.2032 15.8641 18.1291 15.7884L15.7357 13.3576H15.8191C16.0843 13.3576 16.3386 13.2522 16.5262 13.0647C16.7137 12.8772 16.8191 12.6228 16.8191 12.3576V8.40008C16.8191 8.13487 16.7137 7.88052 16.5262 7.69298C16.3386 7.50544 16.0843 7.40009 15.8191 7.40009H14.2657V11.8634L13.4149 11.0001V7.40009L7.39822 3.62592C7.32258 3.57864 7.23568 3.55246 7.14651 3.55009C7.05735 3.54772 6.96917 3.56925 6.89113 3.61243C6.81308 3.65562 6.74801 3.7189 6.70267 3.79571C6.65732 3.87252 6.63334 3.96006 6.63322 4.04925V4.11092L4.47155 1.91425C4.43468 1.87681 4.39079 1.847 4.3424 1.82653C4.294 1.80606 4.24205 1.79532 4.1895 1.79493C4.13695 1.79455 4.08485 1.80452 4.03615 1.82427C3.98746 1.84403 3.94314 1.87319 3.90572 1.91009L3.40655 2.40175C3.33119 2.47619 3.28843 2.57747 3.28765 2.68339C3.28687 2.78931 3.32813 2.89121 3.40239 2.96675L17.0599 16.8401ZM6.63322 15.9501V8.37592L12.1582 13.9876L7.35822 16.3976C7.28198 16.436 7.19717 16.4543 7.11188 16.4506C7.02658 16.447 6.94364 16.4215 6.87095 16.3768C6.79827 16.332 6.73826 16.2693 6.69664 16.1948C6.65503 16.1203 6.63319 16.0363 6.63322 15.9509V15.9501ZM5.43905 7.16259L3.81489 5.51258L3.35739 5.28425C3.16754 5.18944 2.9478 5.17392 2.74651 5.24112C2.54522 5.30832 2.37887 5.45273 2.28405 5.64259C2.18924 5.83244 2.17373 6.05218 2.24093 6.25347C2.30813 6.45475 2.45254 6.6211 2.64239 6.71592L4.34405 7.56592C4.44183 7.6149 4.54861 7.64332 4.6578 7.64941C4.76699 7.6555 4.87627 7.63914 4.97889 7.60135C5.0815 7.56355 5.17528 7.50511 5.25443 7.42964C5.33358 7.35418 5.39641 7.26329 5.43905 7.16259ZM4.70155 10.0509C4.91373 10.0509 5.11721 10.1352 5.26724 10.2852C5.41727 10.4353 5.50155 10.6387 5.50155 10.8509C5.50155 11.0631 5.41727 11.2666 5.26724 11.4166C5.11721 11.5666 4.91373 11.6509 4.70155 11.6509H2.99989C2.78771 11.6509 2.58423 11.5666 2.4342 11.4166C2.28417 11.2666 2.19989 11.0631 2.19989 10.8509C2.19989 10.6387 2.28417 10.4353 2.4342 10.2852C2.58423 10.1352 2.78771 10.0509 2.99989 10.0509H4.70155ZM5.41739 14.4934C5.37045 14.3994 5.30546 14.3156 5.22611 14.2467C5.14677 14.1778 5.05463 14.1252 4.95495 14.0919C4.85528 14.0586 4.75003 14.0453 4.64521 14.0527C4.54039 14.0601 4.43806 14.0881 4.34405 14.1351L2.64239 14.9868C2.54583 15.0321 2.45933 15.0963 2.38797 15.1756C2.3166 15.2549 2.26182 15.3477 2.22684 15.4485C2.19186 15.5493 2.17739 15.656 2.18429 15.7625C2.19119 15.869 2.2193 15.973 2.26699 16.0684C2.31468 16.1638 2.38097 16.2488 2.46197 16.3182C2.54297 16.3876 2.63703 16.4401 2.73863 16.4727C2.84023 16.5052 2.94732 16.5171 3.05358 16.5076C3.15984 16.4982 3.26314 16.4676 3.35739 16.4176L5.05989 15.5668C5.24962 15.4718 5.39387 15.3054 5.46091 15.1041C5.52796 14.9028 5.5123 14.6832 5.41739 14.4934Z" fill="#333333"/>
</svg>
