<svg width="20" height="20" viewBox="0 0 20 20" fill="none" xmlns="http://www.w3.org/2000/svg">
<path d="M10 3.5C10 3.10217 10.158 2.72064 10.4393 2.43934C10.7206 2.15804 11.1022 2 11.5 2H16.5C16.8978 2 17.2794 2.15804 17.5607 2.43934C17.842 2.72064 18 3.10217 18 3.5V6.5C18 6.89782 17.842 7.27936 17.5607 7.56066C17.2794 7.84196 16.8978 8 16.5 8H11.5C11.303 8 11.108 7.9612 10.926 7.88582C10.744 7.81044 10.5786 7.69995 10.4393 7.56066C10.3001 7.42137 10.1896 7.25601 10.1142 7.07403C10.0388 6.89204 10 6.69698 10 6.5V3.5Z" fill="#333333"/>
<path fill-rule="evenodd" clip-rule="evenodd" d="M3.26877 6.52753L4.39377 5.40253L3.33294 4.34253L2.08877 5.5867C1.91185 5.76362 1.7921 5.98956 1.745 6.23529C1.6979 6.48102 1.72564 6.73523 1.82461 6.96503L3.44044 10.7159L4.81794 10.1225L3.26877 6.52753Z" fill="#333333"/>
<path d="M3.31 4.60755C3.2162 4.41983 3.18383 4.20735 3.21748 4.00021C3.25113 3.79307 3.34909 3.60176 3.4975 3.45339L4.45333 2.49755C4.60171 2.34915 4.79301 2.25118 5.00016 2.21753C5.2073 2.18388 5.41978 2.21625 5.6075 2.31005L8.665 3.83839C8.69342 3.85257 8.71805 3.87331 8.73686 3.8989C8.75566 3.92449 8.76811 3.95419 8.77316 3.98555C8.77821 4.0169 8.77572 4.04901 8.76589 4.07921C8.75607 4.10941 8.7392 4.13684 8.71667 4.15922L5.15833 7.71672C5.13589 7.73905 5.10846 7.75572 5.07831 7.76538C5.04816 7.77504 5.01615 7.77741 4.98491 7.77228C4.95367 7.76716 4.92409 7.75469 4.89861 7.7359C4.87313 7.71711 4.85247 7.69255 4.83833 7.66422L3.31 4.60589V4.60755ZM1 10.4001C1 10.3475 1.01035 10.2955 1.03045 10.247C1.05055 10.1984 1.08001 10.1544 1.11716 10.1172C1.1543 10.0801 1.1984 10.0506 1.24693 10.0305C1.29546 10.0104 1.34747 10.0001 1.4 10.0001H18.6C18.6525 10.0001 18.7045 10.0104 18.7531 10.0305C18.8016 10.0506 18.8457 10.0801 18.8828 10.1172C18.92 10.1544 18.9494 10.1984 18.9696 10.247C18.9897 10.2955 19 10.3475 19 10.4001V11.6001C19 11.7061 18.9579 11.8079 18.8828 11.8829C18.8078 11.9579 18.7061 12.0001 18.6 12.0001H1.4C1.29391 12.0001 1.19217 11.9579 1.11716 11.8829C1.04214 11.8079 1 11.7061 1 11.6001V10.4001Z" fill="#333333"/>
<path d="M3 11.4C3 11.2939 3.04214 11.1922 3.11716 11.1172C3.19217 11.0421 3.29391 11 3.4 11H4.2C4.30609 11 4.40783 11.0421 4.48284 11.1172C4.55786 11.1922 4.6 11.2939 4.6 11.4V18.6C4.6 18.6525 4.58965 18.7045 4.56955 18.7531C4.54945 18.8016 4.51999 18.8457 4.48284 18.8828C4.4457 18.92 4.4016 18.9494 4.35307 18.9696C4.30454 18.9897 4.25253 19 4.2 19H3.4C3.29391 19 3.19217 18.9579 3.11716 18.8828C3.04214 18.8078 3 18.7061 3 18.6V11.4ZM15.4 11.4C15.4 11.2939 15.4421 11.1922 15.5172 11.1172C15.5922 11.0421 15.6939 11 15.8 11H16.6C16.7061 11 16.8078 11.0421 16.8828 11.1172C16.9579 11.1922 17 11.2939 17 11.4V18.6C17 18.7061 16.9579 18.8078 16.8828 18.8828C16.8078 18.9579 16.7061 19 16.6 19H15.8C15.6939 19 15.5922 18.9579 15.5172 18.8828C15.4421 18.8078 15.4 18.7061 15.4 18.6V11.4ZM12.7083 7.9C12.7083 7.84747 12.7187 7.79546 12.7388 7.74693C12.7589 7.6984 12.7883 7.6543 12.8255 7.61716C12.8626 7.58001 12.9067 7.55055 12.9553 7.53045C13.0038 7.51035 13.0558 7.5 13.1083 7.5H14.8083C14.8609 7.5 14.9129 7.51035 14.9614 7.53045C15.0099 7.55055 15.054 7.58001 15.0912 7.61716C15.1283 7.6543 15.1578 7.6984 15.1779 7.74693C15.198 7.79546 15.2083 7.84747 15.2083 7.9V10.4333C15.2083 10.5394 15.1662 10.6412 15.0912 10.7162C15.0162 10.7912 14.9144 10.8333 14.8083 10.8333H13.1083C13.0022 10.8333 12.9005 10.7912 12.8255 10.7162C12.7505 10.6412 12.7083 10.5394 12.7083 10.4333V7.9Z" fill="#333333"/>
</svg>
