<svg width="20" height="20" viewBox="0 0 20 20" fill="none" xmlns="http://www.w3.org/2000/svg">
<g clip-path="url(#clip0_1308_6315)">
<path fill-rule="evenodd" clip-rule="evenodd" d="M12.1725 0C12.63 0 13 0.491667 13 1.09833C13 1.705 12.63 2.19667 12.1725 2.19667H11V4H11.5C11.7652 4 12.0196 4.10536 12.2071 4.29289C12.3946 4.48043 12.5 4.73478 12.5 5V6.04167C13.9192 6.27917 15 7.51333 15 9V19C15 19.2652 14.8946 19.5196 14.7071 19.7071C14.5196 19.8946 14.2652 20 14 20H6C5.73478 20 5.48043 19.8946 5.29289 19.7071C5.10536 19.5196 5 19.2652 5 19V9C5.0001 8.29103 5.2512 7.605 5.70881 7.06349C6.16642 6.52199 6.80098 6.15999 7.5 6.04167V5C7.5 4.73478 7.60536 4.48043 7.79289 4.29289C7.98043 4.10536 8.23478 4 8.5 4H9V2.19667H7.125C7.04567 2.19635 6.9674 2.21492 6.89667 2.25083L5.935 2.7425C5.87185 2.77475 5.80256 2.7932 5.73174 2.79662C5.66092 2.80004 5.59018 2.78836 5.52421 2.76235C5.45825 2.73635 5.39857 2.69661 5.34914 2.64577C5.2997 2.59493 5.26165 2.53417 5.2375 2.4675L5.11917 2.14167C5.08422 2.04535 5.0797 1.94062 5.10623 1.84165C5.13276 1.74268 5.18906 1.65425 5.2675 1.58833L7.00417 0.1275C7.11697 0.0458048 7.2524 0.00124387 7.39167 0L12.1725 0ZM7 10C7 9.73478 7.10536 9.48043 7.29289 9.29289C7.48043 9.10536 7.73478 9 8 9H12C12.2652 9 12.5196 9.10536 12.7071 9.29289C12.8946 9.48043 13 9.73478 13 10V12C13 12.2652 12.8946 12.5196 12.7071 12.7071C12.5196 12.8946 12.2652 13 12 13H8C7.73478 13 7.48043 12.8946 7.29289 12.7071C7.10536 12.5196 7 12.2652 7 12V10ZM8 15C7.73478 15 7.48043 15.1054 7.29289 15.2929C7.10536 15.4804 7 15.7348 7 16C7 16.2652 7.10536 16.5196 7.29289 16.7071C7.48043 16.8946 7.73478 17 8 17H12C12.2652 17 12.5196 16.8946 12.7071 16.7071C12.8946 16.5196 13 16.2652 13 16C13 15.7348 12.8946 15.4804 12.7071 15.2929C12.5196 15.1054 12.2652 15 12 15H8Z" fill="#333333"/>
</g>
<defs>
<clipPath id="clip0_1308_6315">
<rect width="20" height="20" fill="white"/>
</clipPath>
</defs>
</svg>
