<svg width="24" height="24" viewBox="0 0 24 24" fill="none" xmlns="http://www.w3.org/2000/svg">
<path d="M9 12.2C9 11.5373 9.44771 11 10 11C10.5523 11 11 11.5373 11 12.2L11 15.8C11 16.4627 10.5523 17 10 17C9.44772 17 9 16.4627 9 15.8L9 12.2Z" fill="#F25B5B"/>
<path d="M13 12.2C13 11.5373 13.4477 11 14 11C14.5523 11 15 11.5373 15 12.2L15 15.8C15 16.4627 14.5523 17 14 17C13.4477 17 13 16.4627 13 15.8L13 12.2Z" fill="#F25B5B"/>
<path d="M17 10.2667C17 9.78439 16.9996 9.36927 17.0215 9.02708C17.0406 8.72801 17.0827 8.42987 17.1768 8.13333H6.82324C6.91733 8.42987 6.95939 8.72801 6.97852 9.02708C7.00039 9.36927 7 9.78439 7 10.2667V16.6667C7 17.7025 7.00227 18.3723 7.06445 18.8656C7.12277 19.3281 7.21686 19.473 7.29297 19.5542L7.36523 19.6177C7.45592 19.6831 7.61352 19.7513 7.93848 19.7979C8.40098 19.8642 9.02892 19.8667 10 19.8667H14C14.9711 19.8667 15.599 19.8642 16.0615 19.7979C16.4951 19.7357 16.6309 19.6353 16.707 19.5542L16.7666 19.4771C16.8279 19.3803 16.8918 19.2122 16.9355 18.8656C16.9977 18.3723 17 17.7025 17 16.6667V10.2667ZM19 16.6667C19 17.6422 19.0022 18.4815 18.918 19.15C18.8408 19.7618 18.6786 20.3511 18.2979 20.8531L18.1211 21.0625C17.6115 21.606 16.9835 21.8185 16.3281 21.9125C15.7014 22.0024 14.9145 22 14 22H10C9.08546 22 8.29862 22.0024 7.67188 21.9125C7.09833 21.8302 6.54582 21.6571 6.0752 21.251L5.87891 21.0625C5.36933 20.5189 5.17018 19.8491 5.08203 19.15C4.99777 18.4815 5 17.6422 5 16.6667V10.2667C5 9.75507 4.99957 9.42465 4.9834 9.17187C4.97562 9.05029 4.96486 8.96638 4.9541 8.90729L4.92383 8.79167C4.83494 8.56286 4.67466 8.37517 4.47168 8.25937L4.38281 8.21458C4.34121 8.1962 4.25428 8.16764 4.02637 8.15104C3.78939 8.13379 3.47962 8.13333 3 8.13333V6H21V8.13333C20.5204 8.13333 20.2106 8.13379 19.9736 8.15104C19.7457 8.16764 19.6588 8.1962 19.6172 8.21458C19.4027 8.3094 19.2267 8.48036 19.1182 8.69687L19.0762 8.79167C19.0589 8.83605 19.0322 8.92877 19.0166 9.17187C19.0004 9.42465 19 9.75507 19 10.2667V16.6667Z" fill="#F25B5B"/>
<path d="M12 2C11.4994 2 10.9949 2.03355 10.5611 2.10217L10.2413 2.16232C10.1371 2.18529 10.0357 2.21094 9.93952 2.2406C9.76481 2.29451 9.52655 2.38462 9.32498 2.5397L10.0235 3.15603L10.6 3.66607L9.32498 2.5397C8.91202 2.8576 8.88962 3.39133 9.27501 3.73199C9.63851 4.05324 10.2347 4.0878 10.648 3.82427C10.6507 3.82341 10.6538 3.8228 10.657 3.8218C10.6843 3.81336 10.7217 3.80276 10.7699 3.79214L10.9468 3.75918C11.2278 3.71473 11.5996 3.68749 12 3.68749C12.3003 3.68749 12.5845 3.70299 12.8264 3.72952L13.0532 3.75918C13.1937 3.7814 13.2884 3.80496 13.343 3.8218C13.3466 3.82291 13.3501 3.82333 13.353 3.82427C13.7663 4.08737 14.3617 4.05308 14.725 3.73199C15.1104 3.39133 15.088 2.8576 14.675 2.5397L13.4 3.66607L13.9765 3.15603L14.675 2.5397C14.4735 2.38462 14.2352 2.29451 14.0605 2.2406C13.8682 2.18128 13.6557 2.13647 13.4389 2.10217L13.1012 2.05768C12.7529 2.01926 12.3755 2 12 2Z" fill="#F25B5B"/>
</svg>
