<?xml version="1.0" encoding="iso-8859-1"?>
<!-- Uploaded to: SVG Repo, www.svgrepo.com, Generator: SVG Repo Mixer Tools -->
<svg fill="#000000" height="800px" width="800px" version="1.1" id="Layer_1" xmlns="http://www.w3.org/2000/svg" xmlns:xlink="http://www.w3.org/1999/xlink" 
	 viewBox="0 0 503.783 503.783" xml:space="preserve">
<g>
	<g>
		<g>
			<path d="M251.891,218.229c-13.883,0-25.18,11.298-25.18,25.18c0,13.883,11.298,25.18,25.18,25.18
				c13.883,0,25.18-11.298,25.18-25.18C277.072,229.527,265.774,218.229,251.891,218.229z"/>
			<path d="M319.039,377.705c0-20.463,3.29-40.087,5.691-54.406c0.797-4.818,1.502-9.048,1.989-12.741H177.064
				c0.487,3.693,1.192,7.923,1.989,12.741c2.401,14.319,5.691,33.943,5.691,54.406c0,17.19-2.283,29.637-4.491,41.682
				c-2.006,10.937-3.903,21.252-3.903,33.859c0,19.557,12.565,44.779,30.594,49.689c5.691,1.544,15.394,1.93,25.55-7.747
				c0.302,0.336,0.604,0.671,0.923,0.99c4.616,4.734,11.264,7.428,18.138,7.428h0.512c7.025,0,13.681-2.694,18.298-7.428
				c0.319-0.319,0.621-0.655,0.923-0.99c7.042,6.723,13.874,8.595,19.288,8.595c2.401,0,4.516-0.369,6.262-0.848
				c18.029-4.91,30.594-30.132,30.594-49.689c0-12.607-1.897-22.923-3.903-33.859C321.322,407.342,319.039,394.895,319.039,377.705z
				"/>
			<path d="M176.35,193.049v100.721h151.082V193.049H176.35z M251.891,285.377c-23.141,0-41.967-18.826-41.967-41.967
				c0-23.141,18.826-41.967,41.967-41.967c23.141,0,41.967,18.826,41.967,41.967C293.859,266.551,275.032,285.377,251.891,285.377z"
				/>
			<path d="M210.528,90.238c-20.237,24.291-32.004,54.574-33.809,86.024h150.343c-1.805-31.45-13.572-61.734-33.809-86.033
				c-5.028-6.018-7.789-13.648-7.789-21.496V50.361c4.642,0,8.393-3.752,8.393-8.393V25.18c0-13.883-11.298-25.18-25.18-25.18
				h-33.574c-13.883,0-25.18,11.298-25.18,25.18v16.787c0,4.642,3.752,8.393,8.393,8.393v18.373
				C218.318,76.582,215.556,84.211,210.528,90.238z M226.711,25.18c0-4.633,3.76-8.393,8.393-8.393h33.574
				c4.633,0,8.393,3.76,8.393,8.393v8.393h-50.361V25.18z"/>
		</g>
	</g>
</g>
</svg>