<svg width="20" height="20" viewBox="0 0 20 20" fill="none" xmlns="http://www.w3.org/2000/svg">
<path d="M19.0943 6.42663C13.9634 1.6908 6.03676 1.6908 0.905927 6.42663C0.783924 6.53898 0.685335 6.67434 0.61583 6.82493C0.546324 6.97551 0.507273 7.13836 0.500923 7.30409C0.494572 7.46982 0.521048 7.63517 0.578826 7.79064C0.636604 7.9461 0.724546 8.08861 0.837594 8.20996C1.31259 8.72163 2.11426 8.75163 2.62759 8.2783C6.78676 4.4383 13.2134 4.4383 17.3726 8.2783C17.6194 8.50577 17.9463 8.62627 18.2817 8.61347C18.6171 8.60066 18.9338 8.45559 19.1626 8.20996C19.2756 8.08861 19.3636 7.9461 19.4214 7.79064C19.4791 7.63517 19.5056 7.46982 19.4993 7.30409C19.4929 7.13836 19.4539 6.97551 19.3844 6.82493C19.3149 6.67434 19.2163 6.53898 19.0943 6.42663Z" fill="#333333"/>
<path d="M4.61082 10.3667C7.19999 7.40255 11.7125 7.09005 14.6883 9.67005C14.9383 9.88588 15.1717 10.1192 15.3883 10.3675C15.4975 10.4923 15.581 10.6375 15.6339 10.7946C15.6868 10.9517 15.7082 11.1178 15.6967 11.2832C15.6852 11.4486 15.6412 11.6101 15.5671 11.7585C15.493 11.9068 15.3903 12.039 15.265 12.1475C15.0113 12.3675 14.6808 12.4779 14.3458 12.4548C14.0108 12.4317 13.6986 12.2769 13.4775 12.0242C13.0437 11.5285 12.509 11.1313 11.9092 10.8592C11.3093 10.587 10.6583 10.4462 9.99957 10.4462C9.34089 10.4462 8.68982 10.587 8.08999 10.8592C7.49016 11.1313 6.95544 11.5285 6.52166 12.0242C6.30056 12.2766 5.98854 12.4313 5.65376 12.4544C5.31899 12.4775 4.98868 12.3672 4.73499 12.1475C4.60957 12.0391 4.50683 11.9069 4.43267 11.7586C4.35851 11.6103 4.31439 11.4488 4.30286 11.2834C4.29132 11.1179 4.31258 10.9519 4.36544 10.7947C4.41829 10.6375 4.50168 10.4924 4.61082 10.3675V10.3667ZM9.55332 16.9409C9.672 17.0589 9.83259 17.1252 9.99999 17.1252C10.1674 17.1252 10.328 17.0589 10.4467 16.9409L11.8292 15.5642C12.2042 15.19 12.1708 14.5725 11.7558 14.2425L11.6583 14.165C11.1872 13.7894 10.6025 13.5848 9.99999 13.5848C9.39745 13.5848 8.81277 13.7894 8.34166 14.165L8.24416 14.2425C8.14645 14.3205 8.06632 14.4182 8.00903 14.5293C7.95174 14.6404 7.91858 14.7623 7.91174 14.8871C7.90489 15.0119 7.92451 15.1368 7.9693 15.2535C8.0141 15.3702 8.08306 15.4761 8.17166 15.5642L9.55332 16.9409Z" fill="#333333"/>
</svg>
