<svg width="210" height="191" viewBox="0 0 210 191" fill="none" xmlns="http://www.w3.org/2000/svg">
<path d="M153.29 19.2909C153.29 24.2628 149.284 28.2759 144.321 28.2759C139.357 28.2759 135.351 24.2628 135.351 19.2909C135.351 14.3189 139.357 10.3058 144.321 10.3058C149.284 10.3058 153.29 14.3189 153.29 19.2909ZM144.817 0.00663399C133.792 -0.27748 124.787 8.60108 124.787 19.5395C124.787 19.7525 124.787 19.9656 124.787 20.1432C124.823 21.7768 125.106 23.375 125.603 24.9376C126.382 27.4591 127.73 29.7675 129.467 31.7918L143.47 47.9863C143.682 48.2349 144.001 48.377 144.321 48.377C144.64 48.377 144.959 48.2349 145.171 47.9863L159.174 31.7918C160.805 29.9096 162.081 27.7787 162.861 25.4348C163.464 23.6591 163.783 21.8123 163.819 19.9656C163.819 19.7525 163.819 19.575 163.819 19.3619C163.712 8.88518 155.239 0.255233 144.781 0.00663399H144.817Z" fill="#00A3E9"/>
<path fill-rule="evenodd" clip-rule="evenodd" d="M56.2729 112.147L106.099 112.363V70.9217L56.8071 70.7042C48.7224 70.7042 42.1335 64.099 42.1335 56.0733C42.1335 48.0121 48.758 41.4424 56.8071 41.4424H85.2998V0H56.2373C25.2872 0 0 25.2489 0 56.0733C0 86.9331 25.3228 112.147 56.2373 112.147" fill="#0061AE"/>
<path fill-rule="evenodd" clip-rule="evenodd" d="M85.2094 0C96.7275 0 106.099 9.33613 106.099 20.89C106.099 32.444 96.7633 41.7801 85.2094 41.7801C73.6555 41.7801 64.3193 32.444 64.3193 20.89C64.3193 9.33613 73.6555 0 85.2094 0Z" fill="#0061AE"/>
<path fill-rule="evenodd" clip-rule="evenodd" d="M153.727 70.9153H103.9V112.358H153.193C161.277 112.358 167.866 118.963 167.866 126.989C167.866 135.05 161.242 141.619 153.193 141.619H124.7V183.062H153.762C184.713 183.062 210 157.813 210 126.989C210 96.1287 184.677 70.9153 153.762 70.9153" fill="#0061AE"/>
<path fill-rule="evenodd" clip-rule="evenodd" d="M124.533 183.062C113.157 183.062 103.9 173.841 103.9 162.465C103.9 151.088 113.122 141.832 124.533 141.832C135.945 141.832 145.131 151.053 145.131 162.465C145.131 173.876 135.91 183.062 124.533 183.062Z" fill="#0061AE"/>
<path d="M74.5328 161.123C74.5328 166.095 70.4705 170.108 65.4375 170.108C60.4044 170.108 56.3421 166.095 56.3421 161.123C56.3421 156.151 60.4044 152.138 65.4375 152.138C70.4705 152.138 74.5328 156.151 74.5328 161.123ZM65.9408 141.838C54.7603 141.554 45.6289 150.433 45.6289 161.371C45.6289 161.584 45.6289 161.797 45.6289 161.975C45.6649 163.609 45.9525 165.207 46.4558 166.769C47.2467 169.291 48.6128 171.599 50.3743 173.624L64.5746 189.818C64.7903 190.067 65.1139 190.209 65.4375 190.209C65.761 190.209 66.0845 190.067 66.3002 189.818L80.5006 173.624C82.1543 171.741 83.4485 169.611 84.2394 167.267C84.8505 165.491 85.1741 163.644 85.2101 161.797C85.2101 161.584 85.2101 161.407 85.2101 161.194C85.1022 150.717 76.5101 142.087 65.9048 141.838H65.9408Z" fill="#78C252"/>
</svg>
