<svg width="24" height="24" viewBox="0 0 24 24" fill="none" xmlns="http://www.w3.org/2000/svg">
<path d="M12 23.9511C18.6274 23.9511 24 18.6005 24 12.0004C24 5.4002 18.6274 0.0496826 12 0.0496826C5.3726 0.0496826 0 5.4002 0 12.0004C0 18.6005 5.3726 23.9511 12 23.9511Z" fill="#FFE05D"/>
<path d="M3.55469 20.5085C5.72755 22.6724 8.69047 24.0002 11.9991 24.0002C15.3077 24.0002 18.2707 22.6724 20.4437 20.5577L11.9498 12.0496L3.55469 20.5085Z" fill="black"/>
<path d="M20.4437 3.49176C18.2707 1.32786 15.3077 0 11.9991 0C8.69047 0 5.72755 1.32786 3.55469 3.44258L12.0485 11.9015L20.4437 3.49176Z" fill="black"/>
<path d="M12.0013 21.2949C17.156 21.2949 21.3347 17.1334 21.3347 12C21.3347 6.86645 17.156 2.70496 12.0013 2.70496C6.84664 2.70496 2.66797 6.86645 2.66797 12C2.66797 17.1334 6.84664 21.2949 12.0013 21.2949Z" fill="#FFE05D"/>
<path d="M14.4199 14.4589C13.8273 15.0983 12.9877 15.4426 12.0001 15.4426C11.0124 15.4426 10.2223 15.0983 9.58035 14.4589C8.93838 13.8196 8.5927 12.9836 8.5927 12C8.5927 9.98362 10.0248 8.5574 12.0001 8.5574C12.9877 8.5574 13.8766 8.95084 14.4692 9.63935L16.7903 7.32791C15.6051 6.09841 13.9261 5.36072 12.0495 5.36072C10.173 5.36072 8.54331 6.00006 7.25936 7.27873C5.9754 8.5574 5.38281 10.1311 5.38281 12.0492C5.38281 13.918 6.02479 15.4918 7.25936 16.8196C8.54331 18.0983 10.1236 18.7376 12.0989 18.7376C13.9261 18.7376 15.6051 17.9999 16.7903 16.8196L14.4199 14.4589Z" fill="black"/>
</svg>
