<svg width="37" height="34" viewBox="0 0 37 34" fill="none" xmlns="http://www.w3.org/2000/svg">
<path d="M25.025 7.19615C25.025 7.27793 25.0238 7.3597 25.0226 7.44148L25.0214 7.5363V7.55052V7.56474L25.0273 7.87644V7.88711V7.89778L25.0605 8.46193L25.0629 8.52356L25.0807 8.584C25.3212 9.46578 25.8392 10.2314 26.6795 10.779C27.4558 11.2839 28.475 11.5813 29.7396 11.6501V12.8364C28.1408 12.7535 26.881 12.3363 25.9435 11.7034L25.019 11.0788V12.1941V15.8148V16.4074H25.6116H26.7968C26.9852 16.4074 27.1607 16.4975 27.2721 16.6456L27.3278 16.7345L35.6146 32.1265C35.8137 32.4951 35.5767 32.9396 35.1784 32.9941L35.0777 33H1.90791C1.48954 33 1.20984 32.5804 1.35088 32.2047L1.39473 32.1123L9.68273 16.7191C9.77991 16.539 9.93873 16.4394 10.113 16.4145L10.158 16.4074H23.2412H23.8338V15.8148L23.8362 12.1953V11.08L22.9118 11.7034C21.9743 12.3363 20.7156 12.7535 19.1168 12.8364V11.6501C20.3304 11.5837 21.3165 11.3076 22.0798 10.8394C22.9758 10.2907 23.5269 9.50133 23.7758 8.584L23.7912 8.52948L23.7959 8.47378L23.8137 8.2557V8.24622V8.23674L23.8291 7.89067V7.87407L23.8338 7.58489V7.57541L23.8362 6.28356V4.98933L22.8561 5.83437C21.9292 6.63319 20.6931 7.15704 19.1168 7.26252V6.07378C20.3304 5.97659 21.3284 5.57837 22.0999 4.90756C22.9876 4.13482 23.5174 3.05274 23.7675 1.81541L23.7698 1.80474L23.7722 1.79407L23.7959 1.64119L23.7983 1.6317V1.62341C23.8184 1.47289 23.8315 1.31644 23.8362 1.16948V1.14459V1.12089L23.8315 1.02726V1H25.019V1.256H25.025C25.0309 1.38044 25.0427 1.50489 25.0581 1.62341V1.6317L25.0605 1.64119L25.0854 1.79407L25.0878 1.80474L25.089 1.81541C25.3295 3.01007 25.8309 4.06015 26.6664 4.82696C27.4475 5.544 28.4762 5.97304 29.7396 6.07378V7.26252C28.1621 7.15704 26.9248 6.63082 25.998 5.832L25.019 4.98578V6.28119V6.66993V7.19615H25.025ZM9.61162 21.6993L8.49636 21.4184L3.37162 30.9413L2.89991 31.8148H3.8931H9.01902H9.61162V31.2222V21.6993ZM33.1091 31.8136H34.0999L33.6294 30.9401L26.6107 17.9031L26.4424 17.5914H26.0892L12.1894 17.5926H11.1962L11.6655 18.4661L18.6854 31.5031L18.8537 31.8148H19.2081L33.1091 31.8136ZM11.9109 21.4219L10.7968 21.7028V31.2222V31.8148H11.3894H16.5165H17.5073L17.0368 30.9413L11.9109 21.4219ZM9.01902 3.37037C11.31 3.37037 13.1672 5.22756 13.1672 7.51852C13.1672 9.80948 11.31 11.6667 9.01902 11.6667C6.72806 11.6667 4.87088 9.80948 4.87088 7.51852C4.87088 5.22756 6.72806 3.37037 9.01902 3.37037ZM9.01902 4.55556C7.38228 4.55556 6.05606 5.88178 6.05606 7.51852C6.05606 9.15526 7.38228 10.4815 9.01902 10.4815C10.6558 10.4815 11.982 9.15526 11.982 7.51852C11.982 5.88178 10.6558 4.55556 9.01902 4.55556Z" fill="white"/>
<path d="M25.0249 7.19615C25.0249 7.27793 25.0238 7.3597 25.0226 7.44148L25.0214 7.5363V7.55052V7.56474L25.0273 7.87644V7.88711V7.89778L25.0605 8.46193L25.0629 8.52356L25.0807 8.584C25.3212 9.46578 25.8392 10.2314 26.6795 10.779C27.4558 11.2839 28.475 11.5813 29.7396 11.6501V12.8364C28.1408 12.7535 26.881 12.3363 25.9435 11.7034L25.019 11.0788V12.1941V15.8148V16.4074H25.6116H26.7968C26.9852 16.4074 27.1607 16.4975 27.2721 16.6456L27.3278 16.7345L35.6146 32.1265C35.8137 32.4951 35.5767 32.9396 35.1784 32.9941L35.0777 33H1.90791C1.48954 33 1.20984 32.5804 1.35088 32.2047L1.39473 32.1123L9.68273 16.7191C9.77991 16.539 9.93873 16.4394 10.113 16.4145L10.158 16.4074H23.2412H23.8338V15.8148L23.8362 12.1953V11.08L22.9118 11.7034C21.9743 12.3363 20.7156 12.7535 19.1168 12.8364V11.6501C20.3304 11.5837 21.3165 11.3076 22.0798 10.8394C22.9758 10.2907 23.5269 9.50133 23.7758 8.584L23.7912 8.52948L23.7959 8.47378L23.8137 8.2557V8.24622V8.23674L23.8291 7.89067V7.87407L23.8338 7.58489V7.57541L23.8362 6.28356V4.98933L22.8561 5.83437C21.9292 6.63319 20.6931 7.15704 19.1168 7.26252V6.07378C20.3304 5.97659 21.3284 5.57837 22.0999 4.90756C22.9876 4.13482 23.5174 3.05274 23.7675 1.81541L23.7698 1.80474L23.7722 1.79407L23.7959 1.64119L23.7983 1.6317V1.62341C23.8184 1.47289 23.8315 1.31644 23.8362 1.16948V1.14459V1.12089L23.8315 1.02726V1H25.019V1.256H25.0249C25.0309 1.38044 25.0427 1.50489 25.0581 1.62341V1.6317L25.0605 1.64119L25.0854 1.79407L25.0878 1.80474L25.089 1.81541C25.3295 3.01007 25.8309 4.06015 26.6664 4.82696C27.4475 5.544 28.4762 5.97304 29.7396 6.07378V7.26252C28.1621 7.15704 26.9248 6.63082 25.998 5.832L25.019 4.98578V6.28119V6.66993V7.19615H25.0249ZM9.61162 21.6993L8.49636 21.4184L3.37162 30.9413L2.89991 31.8148H3.8931H9.01902H9.61162V31.2222V21.6993ZM33.1091 31.8136H34.0999L33.6294 30.9401L26.6107 17.9031L26.4424 17.5914H26.0892L12.1894 17.5926H11.1962L11.6655 18.4661L18.6854 31.5031L18.8537 31.8148H19.2081L33.1091 31.8136ZM11.9109 21.4219L10.7968 21.7028V31.2222V31.8148H11.3894H16.5165H17.5073L17.0368 30.9413L11.9109 21.4219ZM9.01902 3.37037C11.31 3.37037 13.1672 5.22756 13.1672 7.51852C13.1672 9.80948 11.31 11.6667 9.01902 11.6667C6.72806 11.6667 4.87088 9.80948 4.87088 7.51852C4.87088 5.22756 6.72806 3.37037 9.01902 3.37037ZM9.01902 4.55556C7.38228 4.55556 6.05606 5.88178 6.05606 7.51852C6.05606 9.15526 7.38228 10.4815 9.01902 10.4815C10.6558 10.4815 11.982 9.15526 11.982 7.51852C11.982 5.88178 10.6558 4.55556 9.01902 4.55556Z" stroke="white"/>
</svg>
