<svg width="26" height="26" viewBox="0 0 26 26" fill="none" xmlns="http://www.w3.org/2000/svg">
<path d="M7.58331 8.25364V7.89475C7.58331 5.73513 7.58331 4.65532 8.2782 4.05689C8.97309 3.45847 10.0409 3.61865 12.1767 3.939L15.4734 4.43351C17.911 4.79915 19.1298 4.98197 19.8565 5.82589C20.5833 6.66982 20.5833 7.90225 20.5833 10.3671V15.6329C20.5833 18.0977 20.5833 19.3302 19.8565 20.1741C19.1298 21.018 17.911 21.2009 15.4734 21.5665L12.1767 22.061C10.0409 22.3814 8.97309 22.5415 8.2782 21.9431C7.58331 21.3447 7.58331 20.2649 7.58331 18.1053V17.9393" stroke="#333333" stroke-width="2"/>
<path d="M16.25 12.4583L17.0252 11.8266L17.5399 12.4583L17.0252 13.09L16.25 12.4583ZM4.33333 13.4583C3.78105 13.4583 3.33333 13.0106 3.33333 12.4583C3.33333 11.906 3.78105 11.4583 4.33333 11.4583V13.4583ZM13.053 6.95164L17.0252 11.8266L15.4748 13.09L11.5025 8.21499L13.053 6.95164ZM17.0252 13.09L13.053 17.965L11.5025 16.7016L15.4748 11.8266L17.0252 13.09ZM16.25 13.4583H4.33333V11.4583H16.25V13.4583Z" fill="#333333"/>
</svg>
