<svg width="72" height="72" viewBox="0 0 72 72" fill="none" xmlns="http://www.w3.org/2000/svg">
<path d="M7.99999 71.9999C5.79999 71.9999 3.91733 71.2173 2.352 69.6519C0.786666 68.0866 0.00266666 66.2026 0 64V4.00001C0 2.86668 0.384 1.91735 1.152 1.15201C1.92 0.386681 2.86933 0.00268046 4 1.37931e-05C5.13066 -0.00265287 6.08133 0.381347 6.85199 1.15201C7.62266 1.92268 8.00533 2.87201 7.99999 4.00001V64H67.9999C69.1333 64 70.0839 64.384 70.8519 65.152C71.6199 65.92 72.0026 66.8693 71.9999 67.9999C71.9973 69.1306 71.6133 70.0813 70.8479 70.8519C70.0826 71.6226 69.1333 72.0053 67.9999 71.9999H7.99999ZM16 60C14.8667 60 13.9173 59.616 13.152 58.848C12.3867 58.08 12.0027 57.1306 12 56V28C12 26.8667 12.384 25.9173 13.152 25.152C13.92 24.3867 14.8693 24.0027 16 24H24C25.1333 24 26.084 24.384 26.852 25.152C27.62 25.92 28.0026 26.8693 28 28V56C28 57.1333 27.616 58.084 26.848 58.852C26.08 59.62 25.1306 60.0026 24 60H16ZM36 60C34.8666 60 33.9173 59.616 33.152 58.848C32.3866 58.08 32.0026 57.1306 32 56V8.00001C32 6.86667 32.384 5.91734 33.152 5.15201C33.92 4.38668 34.8693 4.00268 36 4.00001H44C45.1333 4.00001 46.084 4.38401 46.852 5.15201C47.62 5.92001 48.0026 6.86934 48 8.00001V56C48 57.1333 47.616 58.084 46.848 58.852C46.08 59.62 45.1306 60.0026 44 60H36ZM55.9999 60C54.8666 60 53.9173 59.616 53.152 58.848C52.3866 58.08 52.0026 57.1306 52 56V44C52 42.8666 52.3839 41.9173 53.152 41.152C53.9199 40.3866 54.8693 40.0026 55.9999 40H63.9999C65.1333 40 66.0839 40.384 66.8519 41.152C67.6199 41.92 68.0026 42.8693 67.9999 44V56C67.9999 57.1333 67.6159 58.084 66.8479 58.852C66.0799 59.62 65.1306 60.0026 63.9999 60H55.9999Z" fill="#175A97"/>
</svg>
