<svg width="32" height="32" viewBox="0 0 32 32" fill="none" xmlns="http://www.w3.org/2000/svg">
<path d="M29.7143 0C30.9189 0 31.9063 0.932571 31.9943 2.11543L32 2.28571V29.7143C32 30.9189 31.0674 31.9063 29.8846 31.9931L29.7143 32H2.28571C1.08114 32 0.093714 31.0674 0.00571442 29.8846L0 29.7143V2.28571C0 1.08114 0.932571 0.093714 2.11543 0.00571442L2.28571 0H29.7143ZM16 5.61714L12.4731 9.14286H2.28571V29.7143H11.4286V24C11.4286 22.7954 12.3611 21.808 13.544 21.72L13.7143 21.7143H18.2857C19.4903 21.7143 20.4777 22.6469 20.5657 23.8297L20.5714 24V29.7143H29.7143V9.14286H19.5269L16 5.61714ZM18.2857 24H13.7143V29.7143H18.2857V24ZM25.1429 21.7143C25.7737 21.7143 26.2857 22.2263 26.2857 22.8571C26.2857 23.488 25.7737 24 25.1429 24C24.512 24 24 23.488 24 22.8571C24 22.2263 24.512 21.7143 25.1429 21.7143ZM6.85714 21.7143C7.488 21.7143 8 22.2263 8 22.8571C8 23.488 7.488 24 6.85714 24C6.22629 24 5.71429 23.488 5.71429 22.8571C5.71429 22.2263 6.22629 21.7143 6.85714 21.7143ZM25.1429 17.1429C25.7737 17.1429 26.2857 17.6549 26.2857 18.2857C26.2857 18.9166 25.7737 19.4286 25.1429 19.4286C24.512 19.4286 24 18.9166 24 18.2857C24 17.6549 24.512 17.1429 25.1429 17.1429ZM6.85714 17.1429C7.488 17.1429 8 17.6549 8 18.2857C8 18.9166 7.488 19.4286 6.85714 19.4286C6.22629 19.4286 5.71429 18.9166 5.71429 18.2857C5.71429 17.6549 6.22629 17.1429 6.85714 17.1429ZM25.1429 12.5714C25.7737 12.5714 26.2857 13.0834 26.2857 13.7143C26.2857 14.3451 25.7737 14.8571 25.1429 14.8571C24.512 14.8571 24 14.3451 24 13.7143C24 13.0834 24.512 12.5714 25.1429 12.5714ZM16 12.5714C16.6309 12.5714 17.1429 13.0834 17.1429 13.7143C17.1429 14.3451 16.6309 14.8571 16 14.8571C15.3691 14.8571 14.8571 14.3451 14.8571 13.7143C14.8571 13.0834 15.3691 12.5714 16 12.5714ZM6.85714 12.5714C7.488 12.5714 8 13.0834 8 13.7143C8 14.3451 7.488 14.8571 6.85714 14.8571C6.22629 14.8571 5.71429 14.3451 5.71429 13.7143C5.71429 13.0834 6.22629 12.5714 6.85714 12.5714ZM29.7143 6.85714V2.28571H2.28571V6.85714H11.5246L14.384 4C15.2297 3.15429 16.5726 3.10971 17.4709 3.86629L17.616 4L20.4743 6.85714H29.7143Z" fill="white"/>
</svg>
