<svg width="33" height="32" viewBox="0 0 33 32" fill="none" xmlns="http://www.w3.org/2000/svg">
<path d="M30.4643 0C31.6689 0 32.6563 0.932571 32.7443 2.11543L32.75 2.28571V29.7143C32.75 30.9189 31.8174 31.9063 30.6346 31.9931L30.4643 32H3.03571C1.83114 32 0.843714 31.0674 0.755714 29.8846L0.75 29.7143V2.28571C0.75 1.08114 1.68257 0.093714 2.86543 0.00571442L3.03571 0H30.4643ZM16.75 5.61714L13.2231 9.14286H3.03571V29.7143H12.1786V24C12.1786 22.7954 13.1111 21.808 14.294 21.72L14.4643 21.7143H19.0357C20.2403 21.7143 21.2277 22.6469 21.3157 23.8297L21.3214 24V29.7143H30.4643V9.14286H20.2769L16.75 5.61714ZM19.0357 24H14.4643V29.7143H19.0357V24ZM25.8929 21.7143C26.5237 21.7143 27.0357 22.2263 27.0357 22.8571C27.0357 23.488 26.5237 24 25.8929 24C25.262 24 24.75 23.488 24.75 22.8571C24.75 22.2263 25.262 21.7143 25.8929 21.7143ZM7.60714 21.7143C8.238 21.7143 8.75 22.2263 8.75 22.8571C8.75 23.488 8.238 24 7.60714 24C6.97629 24 6.46429 23.488 6.46429 22.8571C6.46429 22.2263 6.97629 21.7143 7.60714 21.7143ZM25.8929 17.1429C26.5237 17.1429 27.0357 17.6549 27.0357 18.2857C27.0357 18.9166 26.5237 19.4286 25.8929 19.4286C25.262 19.4286 24.75 18.9166 24.75 18.2857C24.75 17.6549 25.262 17.1429 25.8929 17.1429ZM7.60714 17.1429C8.238 17.1429 8.75 17.6549 8.75 18.2857C8.75 18.9166 8.238 19.4286 7.60714 19.4286C6.97629 19.4286 6.46429 18.9166 6.46429 18.2857C6.46429 17.6549 6.97629 17.1429 7.60714 17.1429ZM25.8929 12.5714C26.5237 12.5714 27.0357 13.0834 27.0357 13.7143C27.0357 14.3451 26.5237 14.8571 25.8929 14.8571C25.262 14.8571 24.75 14.3451 24.75 13.7143C24.75 13.0834 25.262 12.5714 25.8929 12.5714ZM16.75 12.5714C17.3809 12.5714 17.8929 13.0834 17.8929 13.7143C17.8929 14.3451 17.3809 14.8571 16.75 14.8571C16.1191 14.8571 15.6071 14.3451 15.6071 13.7143C15.6071 13.0834 16.1191 12.5714 16.75 12.5714ZM7.60714 12.5714C8.238 12.5714 8.75 13.0834 8.75 13.7143C8.75 14.3451 8.238 14.8571 7.60714 14.8571C6.97629 14.8571 6.46429 14.3451 6.46429 13.7143C6.46429 13.0834 6.97629 12.5714 7.60714 12.5714ZM30.4643 6.85714V2.28571H3.03571V6.85714H12.2746L15.134 4C15.9797 3.15429 17.3226 3.10971 18.2209 3.86629L18.366 4L21.2243 6.85714H30.4643Z" fill="#005CA9"/>
</svg>
