<svg width="698" height="475" viewBox="0 0 698 475" fill="none" xmlns="http://www.w3.org/2000/svg">
<g opacity="0.25">
<path d="M409.707 81.3936C409.707 87.8302 404.671 93.0254 398.431 93.0254C392.192 93.0254 387.156 87.8302 387.156 81.3936C387.156 74.9571 392.192 69.7619 398.431 69.7619C404.671 69.7619 409.707 74.9571 409.707 81.3936ZM399.055 56.429C385.195 56.0612 373.875 67.555 373.875 81.7154C373.875 81.9913 373.875 82.2671 373.875 82.497C373.92 84.6119 374.276 86.6808 374.9 88.7037C375.881 91.9679 377.574 94.9563 379.758 97.5769L397.362 118.542C397.629 118.863 398.03 119.047 398.431 119.047C398.833 119.047 399.234 118.863 399.501 118.542L417.105 97.5769C419.155 95.1402 420.759 92.3817 421.74 89.3473C422.498 87.0486 422.899 84.6578 422.943 82.2671C422.943 81.9913 422.943 81.7614 422.943 81.4856C422.809 67.9228 412.158 56.7508 399.011 56.429H399.055Z" fill="#00A3E9"/>
<path fill-rule="evenodd" clip-rule="evenodd" d="M287.743 201.601L350.382 201.882V148.233L288.415 147.951C278.251 147.951 269.968 139.401 269.968 129.011C269.968 118.575 278.296 110.07 288.415 110.07H324.234V56.4204H287.699C248.79 56.4204 217 89.1067 217 129.011C217 168.961 248.834 201.601 287.699 201.601" fill="#0061AE"/>
<path fill-rule="evenodd" clip-rule="evenodd" d="M324.12 56.4204C338.6 56.4204 350.382 68.5066 350.382 83.4639C350.382 98.4211 338.645 110.507 324.12 110.507C309.595 110.507 297.858 98.4211 297.858 83.4639C297.858 68.5066 309.595 56.4204 324.12 56.4204Z" fill="#0061AE"/>
<path fill-rule="evenodd" clip-rule="evenodd" d="M410.257 148.225H347.618V201.874H409.586C419.75 201.874 428.033 210.425 428.033 220.815C428.033 231.251 419.705 239.756 409.586 239.756H373.766V293.405H410.302C449.211 293.405 481.001 260.719 481.001 220.815C481.001 180.865 449.166 148.225 410.302 148.225" fill="#0061AE"/>
<path fill-rule="evenodd" clip-rule="evenodd" d="M373.557 293.406C359.255 293.406 347.618 281.468 347.618 266.741C347.618 252.013 359.211 240.03 373.557 240.03C387.903 240.03 399.451 251.968 399.451 266.741C399.451 281.514 387.858 293.406 373.557 293.406Z" fill="#0061AE"/>
<path d="M310.7 265.003C310.7 271.44 305.593 276.635 299.266 276.635C292.938 276.635 287.831 271.44 287.831 265.003C287.831 258.567 292.938 253.372 299.266 253.372C305.593 253.372 310.7 258.567 310.7 265.003ZM299.898 240.039C285.843 239.671 274.363 251.165 274.363 265.325C274.363 265.601 274.363 265.877 274.363 266.107C274.408 268.222 274.77 270.291 275.403 272.314C276.397 275.578 278.114 278.566 280.329 281.187L298.181 302.152C298.452 302.473 298.859 302.657 299.266 302.657C299.672 302.657 300.079 302.473 300.35 302.152L318.202 281.187C320.281 278.75 321.908 275.992 322.902 272.957C323.671 270.658 324.077 268.268 324.123 265.877C324.123 265.601 324.123 265.371 324.123 265.095C323.987 251.533 313.185 240.361 299.853 240.039H299.898Z" fill="#78C252"/>
</g>
<g opacity="0.25">
<path d="M169.61 329.499C174.564 329.499 178.895 330.187 182.541 331.596C186.186 333.005 189.52 335.133 192.511 338.013L185.251 346.56C180.733 342.866 175.904 340.987 170.762 340.987C168.021 340.987 165.871 341.551 164.281 342.678C162.692 343.805 161.882 345.401 161.882 347.53C161.882 349.001 162.225 350.191 162.942 351.13C163.627 352.069 164.873 352.946 166.65 353.76C168.426 354.605 171.105 355.575 174.657 356.734C181.388 358.894 186.373 361.586 189.551 364.748C192.729 367.909 194.319 372.386 194.319 378.209C194.319 382.372 193.259 386.035 191.171 389.197C189.084 392.359 186.061 394.832 182.104 396.585C178.147 398.338 173.473 399.214 168.083 399.214C162.692 399.214 157.894 398.338 153.719 396.616C149.543 394.894 145.96 392.578 143 389.729L150.914 380.995C153.469 383.155 156.087 384.783 158.797 385.878C161.508 386.974 164.437 387.506 167.615 387.506C170.794 387.506 173.411 386.786 175.281 385.346C177.15 383.906 178.085 381.903 178.085 379.367C178.085 377.708 177.742 376.33 177.025 375.204C176.34 374.077 175.125 373.075 173.411 372.198C171.697 371.29 169.205 370.351 165.964 369.318C158.642 367.096 153.438 364.341 150.353 361.085C147.269 357.829 145.711 353.697 145.711 348.72C145.711 344.9 146.739 341.52 148.764 338.608C150.79 335.697 153.625 333.474 157.271 331.909C160.885 330.344 164.998 329.561 169.578 329.561" fill="#0061AE"/>
<path d="M234.018 395.171C232.167 396.456 230.003 397.428 227.525 398.149C225.047 398.838 222.601 399.214 220.186 399.214C209.052 399.152 203.469 393.008 203.469 380.782V357.178H196.255V346.614H203.469V335.58L218.649 333.856V346.614H230.379L228.748 357.178H218.649V380.594C218.649 382.977 219.025 384.669 219.81 385.673C220.562 386.707 221.785 387.209 223.448 387.209C225.11 387.209 226.992 386.676 228.937 385.579L234.018 395.171Z" fill="#0061AE"/>
<path d="M256.544 388.401C259.993 388.401 262.69 386.771 264.603 383.512V374.485H260.871C257.422 374.485 254.85 375.08 253.126 376.303C251.432 377.525 250.586 379.406 250.586 381.976C250.586 384.013 251.119 385.612 252.185 386.74C253.251 387.868 254.693 388.433 256.544 388.433M279.467 382.822C279.467 384.734 279.749 386.145 280.282 387.053C280.815 387.962 281.693 388.621 282.916 389.059L279.749 398.932C276.613 398.682 274.042 397.992 272.066 396.864C270.09 395.735 268.554 393.98 267.456 391.536C264.132 396.644 259.021 399.215 252.091 399.215C247.042 399.215 242.997 397.741 239.986 394.795C236.976 391.849 235.471 388.025 235.471 383.292C235.471 377.713 237.509 373.482 241.617 370.536C245.725 367.59 251.62 366.116 259.366 366.116H264.54V363.922C264.54 360.913 263.913 358.845 262.627 357.716C261.341 356.588 259.115 356.024 255.916 356.024C254.254 356.024 252.247 356.275 249.864 356.745C247.481 357.215 245.066 357.873 242.558 358.719L239.108 348.752C242.307 347.53 245.6 346.621 248.955 345.963C252.31 345.336 255.446 344.991 258.331 344.991C265.638 344.991 270.969 346.496 274.355 349.505C277.742 352.514 279.435 357.027 279.435 363.045V382.822H279.467Z" fill="#0061AE"/>
<path d="M318.062 397.433C316.025 404.002 312.671 409.07 308.033 412.605C303.395 416.14 297.158 418.142 289.354 418.58L287.724 407.944C292.582 407.318 296.186 406.223 298.506 404.691C300.856 403.158 302.705 400.686 304.116 397.308H298.944L283.399 346.443H299.508L308.629 387.642L318.595 346.443H334.234L317.999 397.402L318.062 397.433Z" fill="#0061AE"/>
<path d="M361.538 385.901C365.705 385.901 368.838 385.275 371 384.025C373.13 382.775 374.227 380.462 374.227 377.086C374.227 370.96 370.405 367.897 362.728 367.897H355.835V385.901H361.6H361.538ZM355.773 342.079V357.488H361.632C368.274 357.488 371.595 354.8 371.595 349.455C371.595 346.767 370.687 344.892 368.901 343.766C367.115 342.641 364.263 342.079 360.347 342.079H355.741H355.773ZM375.449 362.177C379.867 363.021 383.47 364.646 386.227 367.053C389.016 369.491 390.394 373.117 390.394 377.961C390.394 385.057 387.856 390.026 382.781 392.933C377.705 395.84 370.593 397.278 361.444 397.278H340.044V330.951H358.843C368.18 330.951 375.324 332.264 380.243 334.921C385.162 337.578 387.637 341.891 387.637 347.892C387.637 351.799 386.478 354.925 384.128 357.332C381.778 359.739 378.895 361.333 375.449 362.177Z" fill="#0061AE"/>
<path d="M420.168 356.118C417.099 356.118 414.812 357.403 413.277 360.005C411.743 362.606 410.96 366.618 410.96 372.04C410.96 377.463 411.711 381.662 413.215 384.233C414.718 386.803 417.036 388.056 420.168 388.056C423.301 388.056 425.525 386.771 427.059 384.17C428.594 381.568 429.346 377.557 429.346 372.134C429.346 366.712 428.594 362.512 427.091 359.942C425.587 357.372 423.269 356.118 420.137 356.118M420.168 344.991C427.968 344.991 434.076 347.373 438.492 352.137C442.909 356.902 445.101 363.578 445.101 372.134C445.101 377.588 444.099 382.321 442.094 386.395C440.09 390.47 437.208 393.604 433.449 395.861C429.722 398.086 425.274 399.215 420.168 399.215C412.432 399.215 406.355 396.833 401.907 392.068C397.459 387.304 395.235 380.628 395.235 372.072C395.235 366.618 396.238 361.885 398.242 357.81C400.247 353.736 403.129 350.602 406.887 348.345C410.615 346.12 415.063 344.991 420.168 344.991Z" fill="#0061AE"/>
<path d="M474.876 356.118C471.807 356.118 469.52 357.403 467.985 360.005C466.451 362.606 465.699 366.618 465.699 372.04C465.699 377.463 466.451 381.662 467.954 384.233C469.458 386.803 471.775 388.056 474.908 388.056C478.04 388.056 480.295 386.771 481.83 384.17C483.365 381.568 484.117 377.557 484.117 372.134C484.117 366.712 483.365 362.512 481.861 359.942C480.358 357.372 478.04 356.118 474.908 356.118M474.876 344.991C482.676 344.991 488.784 347.373 493.2 352.137C497.617 356.902 499.809 363.578 499.809 372.134C499.809 377.588 498.807 382.321 496.803 386.395C494.798 390.47 491.916 393.604 488.157 395.861C484.43 398.086 479.982 399.215 474.876 399.215C467.14 399.215 461.063 396.833 456.615 392.068C452.167 387.304 449.943 380.628 449.943 372.072C449.943 366.618 450.946 361.885 452.95 357.81C454.955 353.736 457.837 350.602 461.595 348.345C465.323 346.12 469.771 344.991 474.876 344.991Z" fill="#0061AE"/>
<path d="M553.747 346.468L538.293 368.748L555.001 397.247H537.917L522.745 369.498L538.293 346.437H553.747V346.468ZM522.243 324.657V397.278H507.071V326.282L522.243 324.657Z" fill="#0061AE"/>
</g>
</svg>
