<svg width="174" height="45" viewBox="0 0 174 45" fill="none" xmlns="http://www.w3.org/2000/svg">
<path d="M36.2661 4.56386C36.2661 5.74014 35.3184 6.68957 34.1442 6.68957C32.97 6.68957 32.0223 5.74014 32.0223 4.56386C32.0223 3.38758 32.97 2.43815 34.1442 2.43815C35.3184 2.43815 36.2661 3.38758 36.2661 4.56386ZM34.2616 0.00156948C31.6533 -0.0656465 29.5229 2.03486 29.5229 4.62267C29.5229 4.67309 29.5229 4.7235 29.5229 4.76551C29.5313 5.152 29.5984 5.53009 29.7159 5.89978C29.9004 6.49632 30.2191 7.04245 30.63 7.52136L33.9429 11.3527C33.9932 11.4115 34.0687 11.4451 34.1442 11.4451C34.2197 11.4451 34.2952 11.4115 34.3455 11.3527L37.6584 7.52136C38.0442 7.07606 38.3461 6.57194 38.5306 6.0174C38.6732 5.5973 38.7487 5.1604 38.7571 4.72349C38.7571 4.67308 38.7571 4.63107 38.7571 4.58066C38.7319 2.10207 36.7274 0.0603835 34.2532 0.00156948H34.2616Z" fill="#00A3E9"/>
<path fill-rule="evenodd" clip-rule="evenodd" d="M13.3131 26.5318H25.1012V16.7273H13.4395C11.5268 16.7273 9.968 15.1646 9.968 13.2659C9.968 11.3588 11.5352 9.80451 13.4395 9.80451H20.1804V0H13.3047C5.98249 0 0 5.97344 0 13.2659C0 20.5668 5.99092 26.5318 13.3047 26.5318" fill="white"/>
<path fill-rule="evenodd" clip-rule="evenodd" d="M20.1592 0C22.8842 0 25.1014 2.20876 25.1014 4.9422C25.1014 7.67564 22.8927 9.8844 20.1592 9.8844C17.4258 9.8844 15.217 7.67564 15.217 4.9422C15.217 2.20876 17.4258 0 20.1592 0Z" fill="white"/>
<path fill-rule="evenodd" clip-rule="evenodd" d="M36.3688 16.7775H24.5808V26.582H36.2425C38.1552 26.582 39.714 28.1446 39.714 30.0434C39.714 31.9505 38.1467 33.5048 36.2425 33.5048H29.5016V43.3093H36.3773C43.6995 43.3093 49.682 37.3358 49.682 30.0434C49.682 22.7425 43.6911 16.7775 36.3773 16.7775" fill="white"/>
<path fill-rule="evenodd" clip-rule="evenodd" d="M29.4622 43.3092C26.7707 43.3092 24.5808 41.1277 24.5808 38.4362C24.5808 35.7448 26.7624 33.5549 29.4622 33.5549C32.1619 33.5549 34.3352 35.7364 34.3352 38.4362C34.3352 41.136 32.1536 43.3092 29.4622 43.3092Z" fill="white"/>
<path d="M17.6328 38.1187C17.6328 39.295 16.6717 40.2444 15.481 40.2444C14.2903 40.2444 13.3292 39.295 13.3292 38.1187C13.3292 36.9424 14.2903 35.993 15.481 35.993C16.6717 35.993 17.6328 36.9424 17.6328 38.1187ZM15.6001 33.5564C12.955 33.4892 10.7947 35.5897 10.7947 38.1775C10.7947 38.228 10.7947 38.2784 10.7947 38.3204C10.8032 38.7069 10.8712 39.085 10.9903 39.4546C11.1774 40.0512 11.5006 40.5973 11.9174 41.0762L15.2769 44.9075C15.3279 44.9664 15.4045 45 15.481 45C15.5576 45 15.6341 44.9664 15.6851 44.9075L19.0447 41.0762C19.4359 40.6309 19.7421 40.1268 19.9292 39.5723C20.0738 39.1522 20.1503 38.7153 20.1588 38.2784C20.1588 38.228 20.1588 38.1859 20.1588 38.1355C20.1333 35.6569 18.1006 33.6153 15.5916 33.5564H15.6001Z" fill="#78C252"/>
<path d="M70.3561 11.1849C71.687 11.1849 72.8505 11.3699 73.8299 11.7484C74.8092 12.1268 75.7048 12.6987 76.5084 13.4724L74.5581 15.7682C73.3444 14.7759 72.047 14.2713 70.6658 14.2713C69.9292 14.2713 69.3517 14.4227 68.9248 14.7254C68.4979 15.0282 68.2803 15.457 68.2803 16.0289C68.2803 16.4242 68.3723 16.7437 68.5648 16.996C68.749 17.2483 69.0838 17.4838 69.5609 17.7024C70.0381 17.9295 70.7579 18.1902 71.7121 18.5014C73.5202 19.0816 74.8594 19.8048 75.7132 20.6542C76.567 21.5036 76.9939 22.7062 76.9939 24.2704C76.9939 25.3889 76.7093 26.3728 76.1485 27.2222C75.5877 28.0716 74.7757 28.7359 73.7127 29.2069C72.6496 29.6778 71.3941 29.9133 69.946 29.9133C68.4979 29.9133 67.2088 29.6778 66.0872 29.2153C64.9656 28.7527 64.003 28.1304 63.2078 27.3651L65.3339 25.0188C66.0202 25.5991 66.7233 26.0364 67.4516 26.3308C68.1798 26.6251 68.9666 26.7681 69.8204 26.7681C70.6742 26.7681 71.3773 26.5746 71.8796 26.1878C72.3818 25.8009 72.6329 25.2627 72.6329 24.5815C72.6329 24.1358 72.5408 23.7658 72.3483 23.4631C72.1641 23.1603 71.8377 22.8912 71.3773 22.6557C70.9169 22.4119 70.2473 22.1596 69.3768 21.882C67.4097 21.285 66.0119 20.5449 65.1832 19.6703C64.3545 18.7957 63.936 17.6856 63.936 16.3485C63.936 15.3225 64.2122 14.4142 64.7563 13.6321C65.3004 12.85 66.0621 12.253 67.0414 11.8325C68.0124 11.412 69.1173 11.2018 70.3478 11.2018" fill="white"/>
<path d="M87.6592 28.8272C87.162 29.1724 86.5807 29.4335 85.9151 29.6272C85.2494 29.8124 84.5922 29.9135 83.9434 29.9135C80.9523 29.8966 79.4526 28.2461 79.4526 24.9619V18.6209H77.5146V15.783H79.4526V12.8188L83.5306 12.3557V15.783H86.6818L86.2437 18.6209H83.5306V24.9114C83.5306 25.5514 83.6317 26.0061 83.8423 26.2756C84.0445 26.5535 84.3732 26.6882 84.8197 26.6882C85.2663 26.6882 85.7718 26.5451 86.2942 26.2503L87.6592 28.8272Z" fill="white"/>
<path d="M93.7103 27.0084C94.637 27.0084 95.3614 26.5706 95.8753 25.6949V23.27H94.8728C93.9462 23.27 93.2554 23.4299 92.7921 23.7583C92.3372 24.0867 92.1097 24.5919 92.1097 25.2823C92.1097 25.8296 92.2529 26.259 92.5394 26.5622C92.8258 26.8653 93.2133 27.0168 93.7103 27.0168M99.8683 25.5097C99.8683 26.0233 99.9442 26.4022 100.087 26.6464C100.231 26.8905 100.466 27.0673 100.795 27.1852L99.9441 29.8375C99.1017 29.7701 98.411 29.5849 97.8802 29.2818C97.3495 28.9787 96.9367 28.5072 96.6419 27.8504C95.7489 29.2229 94.3758 29.9133 92.5141 29.9133C91.1578 29.9133 90.0711 29.5175 89.2624 28.7261C88.4537 27.9346 88.0493 26.9074 88.0493 25.636C88.0493 24.1372 88.5969 23.0005 89.7004 22.209C90.804 21.4176 92.3877 21.0218 94.4685 21.0218H95.8585V20.4324C95.8585 19.6241 95.69 19.0684 95.3446 18.7653C94.9992 18.4622 94.4011 18.3106 93.5418 18.3106C93.0954 18.3106 92.5562 18.378 91.916 18.5043C91.2757 18.6306 90.6271 18.8074 89.9532 19.0347L89.0265 16.3572C89.8858 16.0288 90.7703 15.7846 91.6717 15.6078C92.5731 15.4394 93.4155 15.3468 94.1905 15.3468C96.1533 15.3468 97.5854 15.751 98.4952 16.5593C99.405 17.3676 99.8599 18.5801 99.8599 20.1967V25.5097H99.8683Z" fill="white"/>
<path d="M110.237 29.4349C109.69 31.1996 108.789 32.561 107.543 33.5106C106.297 34.4602 104.621 34.998 102.525 35.1157L102.087 32.2585C103.392 32.0904 104.36 31.7963 104.983 31.3845C105.615 30.9727 106.112 30.3088 106.49 29.4013H105.101L100.925 15.7371H105.253L107.703 26.8046L110.38 15.7371H114.581L110.22 29.4265L110.237 29.4349Z" fill="white"/>
<path d="M121.916 26.3367C123.035 26.3367 123.877 26.1688 124.458 25.8329C125.03 25.497 125.325 24.8757 125.325 23.9688C125.325 22.3231 124.298 21.5002 122.236 21.5002H120.384V26.3367H121.933H121.916ZM120.367 14.5644V18.7041H121.941C123.726 18.7041 124.618 17.9819 124.618 16.5461C124.618 15.824 124.374 15.3202 123.894 15.0179C123.414 14.7156 122.648 14.5644 121.596 14.5644H120.359H120.367ZM125.653 19.9636C126.84 20.1903 127.808 20.6269 128.548 21.2735C129.298 21.9284 129.668 22.9024 129.668 24.2039C129.668 26.11 128.986 27.4451 127.623 28.226C126.259 29.0069 124.348 29.3931 121.891 29.3931H116.142V11.5752H121.192C123.7 11.5752 125.619 11.9279 126.941 12.6416C128.262 13.3553 128.927 14.5141 128.927 16.1262C128.927 17.1758 128.616 18.0155 127.984 18.6621C127.353 19.3086 126.579 19.7369 125.653 19.9636Z" fill="white"/>
<path d="M137.667 18.3359C136.842 18.3359 136.228 18.6811 135.815 19.38C135.403 20.0788 135.193 21.1566 135.193 22.6132C135.193 24.0699 135.395 25.1981 135.798 25.8886C136.202 26.579 136.825 26.9158 137.667 26.9158C138.508 26.9158 139.105 26.5706 139.518 25.8717C139.93 25.1729 140.132 24.0951 140.132 22.6385C140.132 21.1818 139.93 20.0535 139.526 19.3631C139.122 18.6727 138.5 18.3359 137.658 18.3359M137.667 15.3468C139.762 15.3468 141.403 15.9867 142.589 17.2665C143.775 18.5464 144.364 20.3398 144.364 22.6385C144.364 24.1035 144.095 25.3749 143.557 26.4695C143.018 27.5641 142.244 28.4061 141.234 29.0124C140.233 29.6102 139.038 29.9133 137.667 29.9133C135.588 29.9133 133.956 29.2734 132.761 27.9935C131.566 26.7137 130.969 24.9203 130.969 22.6216C130.969 21.1566 131.238 19.8851 131.776 18.7906C132.315 17.696 133.089 16.854 134.099 16.2477C135.1 15.6499 136.295 15.3468 137.667 15.3468Z" fill="white"/>
<path d="M152.363 18.3359C151.538 18.3359 150.924 18.6811 150.512 19.38C150.099 20.0788 149.897 21.1566 149.897 22.6132C149.897 24.0699 150.099 25.1981 150.503 25.8886C150.907 26.579 151.53 26.9158 152.371 26.9158C153.213 26.9158 153.819 26.5706 154.231 25.8717C154.643 25.1729 154.845 24.0951 154.845 22.6385C154.845 21.1818 154.643 20.0535 154.239 19.3631C153.835 18.6727 153.213 18.3359 152.371 18.3359M152.363 15.3468C154.458 15.3468 156.099 15.9867 157.285 17.2665C158.472 18.5464 159.061 20.3398 159.061 22.6385C159.061 24.1035 158.792 25.3749 158.253 26.4695C157.714 27.5641 156.94 28.4061 155.931 29.0124C154.929 29.6102 153.734 29.9133 152.363 29.9133C150.284 29.9133 148.652 29.2734 147.457 27.9935C146.262 26.7137 145.665 24.9203 145.665 22.6216C145.665 21.1566 145.934 19.8851 146.473 18.7906C147.011 17.696 147.785 16.854 148.795 16.2477C149.796 15.6499 150.991 15.3468 152.363 15.3468Z" fill="white"/>
<path d="M173.551 15.7437L169.399 21.729L173.887 29.3847H169.298L165.222 21.9304L169.399 15.7353H173.551V15.7437ZM165.087 9.8844V29.3931H161.012V10.3209L165.087 9.8844Z" fill="white"/>
</svg>
