<svg width="174" height="45" viewBox="0 0 174 45" fill="none" xmlns="http://www.w3.org/2000/svg">
<path d="M36.2661 4.56386C36.2661 5.74014 35.3184 6.68957 34.1442 6.68957C32.97 6.68957 32.0223 5.74014 32.0223 4.56386C32.0223 3.38758 32.97 2.43815 34.1442 2.43815C35.3184 2.43815 36.2661 3.38758 36.2661 4.56386ZM34.2616 0.00156948C31.6533 -0.0656465 29.5229 2.03486 29.5229 4.62267C29.5229 4.67309 29.5229 4.7235 29.5229 4.76551C29.5313 5.152 29.5984 5.53009 29.7159 5.89978C29.9004 6.49632 30.2191 7.04245 30.63 7.52136L33.9429 11.3527C33.9932 11.4115 34.0687 11.4451 34.1442 11.4451C34.2197 11.4451 34.2952 11.4115 34.3455 11.3527L37.6584 7.52136C38.0442 7.07606 38.3461 6.57194 38.5306 6.0174C38.6732 5.5973 38.7487 5.1604 38.7571 4.72349C38.7571 4.67308 38.7571 4.63107 38.7571 4.58066C38.7319 2.10207 36.7274 0.0603835 34.2532 0.00156948H34.2616Z" fill="#78C252"/>
<path fill-rule="evenodd" clip-rule="evenodd" d="M13.3131 26.5318H25.1012V16.7273H13.4395C11.5268 16.7273 9.968 15.1646 9.968 13.2659C9.968 11.3588 11.5352 9.80451 13.4395 9.80451H20.1804V0H13.3047C5.98249 0 0 5.97344 0 13.2659C0 20.5668 5.99092 26.5318 13.3047 26.5318" fill="#0061AE"/>
<path fill-rule="evenodd" clip-rule="evenodd" d="M20.1592 0C22.8842 0 25.1014 2.20876 25.1014 4.9422C25.1014 7.67564 22.8927 9.8844 20.1592 9.8844C17.4258 9.8844 15.217 7.67564 15.217 4.9422C15.217 2.20876 17.4258 0 20.1592 0Z" fill="#0061AE"/>
<path fill-rule="evenodd" clip-rule="evenodd" d="M36.3688 16.7773H24.5808V26.5818H36.2425C38.1552 26.5818 39.714 28.1445 39.714 30.0433C39.714 31.9504 38.1467 33.5046 36.2425 33.5046H29.5016V43.3092H36.3773C43.6995 43.3092 49.682 37.3357 49.682 30.0433C49.682 22.7424 43.6911 16.7773 36.3773 16.7773" fill="#0061AE"/>
<path fill-rule="evenodd" clip-rule="evenodd" d="M29.4622 43.3093C26.7707 43.3093 24.5808 41.1277 24.5808 38.4363C24.5808 35.7449 26.7624 33.5549 29.4622 33.5549C32.1619 33.5549 34.3352 35.7365 34.3352 38.4363C34.3352 41.1361 32.1536 43.3093 29.4622 43.3093Z" fill="#0061AE"/>
<path d="M17.6328 38.1188C17.6328 39.2951 16.6717 40.2445 15.481 40.2445C14.2903 40.2445 13.3292 39.2951 13.3292 38.1188C13.3292 36.9425 14.2903 35.9931 15.481 35.9931C16.6717 35.9931 17.6328 36.9425 17.6328 38.1188ZM15.6001 33.5565C12.955 33.4893 10.7947 35.5898 10.7947 38.1776C10.7947 38.228 10.7947 38.2784 10.7947 38.3204C10.8032 38.7069 10.8712 39.085 10.9903 39.4547C11.1774 40.0513 11.5006 40.5974 11.9174 41.0763L15.2769 44.9076C15.3279 44.9664 15.4045 45 15.481 45C15.5576 45 15.6341 44.9664 15.6851 44.9076L19.0447 41.0763C19.4359 40.631 19.7421 40.1269 19.9292 39.5723C20.0738 39.1522 20.1503 38.7153 20.1588 38.2784C20.1588 38.228 20.1588 38.186 20.1588 38.1356C20.1333 35.657 18.1006 33.6153 15.5916 33.5565H15.6001Z" fill="#00A3E9"/>
<path d="M70.3561 11.1851C71.687 11.1851 72.8505 11.3701 73.8299 11.7485C74.8092 12.1269 75.7048 12.6988 76.5084 13.4725L74.5581 15.7683C73.3444 14.776 72.047 14.2714 70.6658 14.2714C69.9292 14.2714 69.3517 14.4228 68.9248 14.7255C68.4979 15.0283 68.2803 15.4572 68.2803 16.029C68.2803 16.4243 68.3723 16.7438 68.5648 16.9961C68.749 17.2484 69.0838 17.4839 69.5609 17.7026C70.0381 17.9296 70.7579 18.1903 71.7121 18.5015C73.5202 19.0817 74.8594 19.805 75.7132 20.6543C76.567 21.5037 76.9939 22.7063 76.9939 24.2705C76.9939 25.389 76.7093 26.3729 76.1485 27.2223C75.5877 28.0717 74.7757 28.736 73.7127 29.207C72.6496 29.6779 71.3941 29.9134 69.946 29.9134C68.4979 29.9134 67.2088 29.6779 66.0872 29.2154C64.9656 28.7529 64.003 28.1306 63.2078 27.3653L65.3339 25.019C66.0202 25.5992 66.7233 26.0365 67.4516 26.3309C68.1798 26.6252 68.9666 26.7682 69.8204 26.7682C70.6742 26.7682 71.3773 26.5748 71.8796 26.1879C72.3818 25.8011 72.6329 25.2629 72.6329 24.5817C72.6329 24.136 72.5408 23.7659 72.3483 23.4632C72.1641 23.1604 71.8377 22.8913 71.3773 22.6559C70.9169 22.412 70.2473 22.1597 69.3768 21.8822C67.4097 21.2851 66.0119 20.545 65.1832 19.6704C64.3545 18.7958 63.936 17.6857 63.936 16.3486C63.936 15.3226 64.2122 14.4144 64.7563 13.6323C65.3004 12.8502 66.0621 12.2531 67.0414 11.8326C68.0124 11.4121 69.1173 11.2019 70.3478 11.2019" fill="#0061AE"/>
<path d="M87.6592 28.8272C87.162 29.1725 86.5807 29.4335 85.9151 29.6272C85.2494 29.8125 84.5922 29.9135 83.9434 29.9135C80.9523 29.8967 79.4526 28.2462 79.4526 24.962V18.621H77.5146V15.7831H79.4526V12.8189L83.5306 12.3557V15.7831H86.6818L86.2437 18.621H83.5306V24.9115C83.5306 25.5514 83.6317 26.0062 83.8423 26.2757C84.0445 26.5535 84.3732 26.6883 84.8197 26.6883C85.2663 26.6883 85.7718 26.5451 86.2942 26.2504L87.6592 28.8272Z" fill="#0061AE"/>
<path d="M93.7103 27.0085C94.637 27.0085 95.3614 26.5707 95.8753 25.695V23.2701H94.8728C93.9462 23.2701 93.2554 23.4301 92.7921 23.7584C92.3372 24.0868 92.1097 24.592 92.1097 25.2824C92.1097 25.8297 92.2529 26.2592 92.5394 26.5623C92.8258 26.8654 93.2133 27.017 93.7103 27.017M99.8683 25.5098C99.8683 26.0234 99.9442 26.4023 100.087 26.6465C100.231 26.8907 100.466 27.0675 100.795 27.1853L99.9441 29.8376C99.1017 29.7703 98.411 29.585 97.8802 29.2819C97.3495 28.9788 96.9367 28.5073 96.6419 27.8505C95.7489 29.223 94.3758 29.9134 92.5141 29.9134C91.1578 29.9134 90.0711 29.5177 89.2624 28.7262C88.4537 27.9347 88.0493 26.9075 88.0493 25.6361C88.0493 24.1373 88.5969 23.0006 89.7004 22.2092C90.804 21.4177 92.3877 21.022 94.4685 21.022H95.8585V20.4326C95.8585 19.6243 95.69 19.0685 95.3446 18.7654C94.9992 18.4623 94.4011 18.3107 93.5418 18.3107C93.0954 18.3107 92.5562 18.3781 91.916 18.5044C91.2757 18.6307 90.6271 18.8075 89.9532 19.0349L89.0265 16.3573C89.8858 16.0289 90.7703 15.7848 91.6717 15.6079C92.5731 15.4395 93.4155 15.3469 94.1905 15.3469C96.1533 15.3469 97.5854 15.7511 98.4952 16.5594C99.405 17.3677 99.8599 18.5802 99.8599 20.1968V25.5098H99.8683Z" fill="#0061AE"/>
<path d="M110.237 29.4349C109.69 31.1996 108.789 32.561 107.543 33.5106C106.297 34.4602 104.621 34.998 102.525 35.1157L102.087 32.2585C103.392 32.0904 104.36 31.7963 104.983 31.3845C105.615 30.9727 106.112 30.3088 106.49 29.4013H105.101L100.925 15.7371H105.253L107.703 26.8046L110.38 15.7371H114.581L110.22 29.4265L110.237 29.4349Z" fill="#0061AE"/>
<path d="M121.916 26.3367C123.035 26.3367 123.877 26.1688 124.458 25.8329C125.03 25.497 125.325 24.8757 125.325 23.9688C125.325 22.3231 124.298 21.5002 122.236 21.5002H120.384V26.3367H121.933H121.916ZM120.367 14.5644V18.7041H121.941C123.726 18.7041 124.618 17.9819 124.618 16.5461C124.618 15.824 124.374 15.3202 123.894 15.0179C123.414 14.7156 122.648 14.5644 121.596 14.5644H120.359H120.367ZM125.653 19.9636C126.84 20.1903 127.808 20.6269 128.548 21.2735C129.298 21.9284 129.668 22.9024 129.668 24.2039C129.668 26.11 128.986 27.4451 127.623 28.226C126.259 29.0069 124.348 29.3931 121.891 29.3931H116.142V11.5752H121.192C123.7 11.5752 125.619 11.9279 126.941 12.6416C128.262 13.3553 128.927 14.5141 128.927 16.1262C128.927 17.1758 128.616 18.0155 127.984 18.6621C127.353 19.3086 126.579 19.7369 125.653 19.9636Z" fill="#0061AE"/>
<path d="M137.667 18.336C136.842 18.336 136.228 18.6812 135.815 19.3801C135.403 20.0789 135.193 21.1567 135.193 22.6133C135.193 24.07 135.395 25.1982 135.798 25.8887C136.202 26.5791 136.825 26.9159 137.667 26.9159C138.508 26.9159 139.105 26.5707 139.518 25.8718C139.93 25.173 140.132 24.0952 140.132 22.6386C140.132 21.1819 139.93 20.0537 139.526 19.3632C139.122 18.6728 138.5 18.336 137.658 18.336M137.667 15.3469C139.762 15.3469 141.403 15.9868 142.589 17.2667C143.775 18.5465 144.364 20.3399 144.364 22.6386C144.364 24.1037 144.095 25.3751 143.557 26.4697C143.018 27.5643 142.244 28.4062 141.234 29.0125C140.233 29.6103 139.038 29.9134 137.667 29.9134C135.588 29.9134 133.956 29.2735 132.761 27.9937C131.566 26.7138 130.969 24.9204 130.969 22.6217C130.969 21.1567 131.238 19.8853 131.776 18.7907C132.315 17.6961 133.089 16.8541 134.099 16.2479C135.1 15.65 136.295 15.3469 137.667 15.3469Z" fill="#0061AE"/>
<path d="M152.363 18.336C151.538 18.336 150.924 18.6812 150.512 19.3801C150.099 20.0789 149.897 21.1567 149.897 22.6133C149.897 24.07 150.099 25.1982 150.503 25.8887C150.907 26.5791 151.53 26.9159 152.371 26.9159C153.213 26.9159 153.819 26.5707 154.231 25.8718C154.643 25.173 154.845 24.0952 154.845 22.6386C154.845 21.1819 154.643 20.0537 154.239 19.3632C153.835 18.6728 153.213 18.336 152.371 18.336M152.363 15.3469C154.458 15.3469 156.099 15.9868 157.285 17.2667C158.472 18.5465 159.061 20.3399 159.061 22.6386C159.061 24.1037 158.792 25.3751 158.253 26.4697C157.714 27.5643 156.94 28.4062 155.931 29.0125C154.929 29.6103 153.734 29.9134 152.363 29.9134C150.284 29.9134 148.652 29.2735 147.457 27.9937C146.262 26.7138 145.665 24.9204 145.665 22.6217C145.665 21.1567 145.934 19.8853 146.473 18.7907C147.011 17.6961 147.785 16.8541 148.795 16.2479C149.796 15.65 150.991 15.3469 152.363 15.3469Z" fill="#0061AE"/>
<path d="M173.551 15.7438L169.399 21.7291L173.887 29.3848H169.298L165.222 21.9305L169.399 15.7354H173.551V15.7438ZM165.087 9.88452V29.3932H161.012V10.321L165.087 9.88452Z" fill="#0061AE"/>
</svg>
