<svg width="15" height="19" viewBox="0 0 15 19" fill="none" xmlns="http://www.w3.org/2000/svg">
<path d="M10.9537 7.6777C10.9537 9.52767 9.41417 11.0209 7.50682 11.0209C5.59946 11.0209 4.05996 9.52767 4.05996 7.6777C4.05996 5.82773 5.59946 4.33454 7.50682 4.33454C9.41417 4.33454 10.9537 5.82773 10.9537 7.6777ZM7.69755 0.502468C3.4605 0.396756 0 3.70027 0 7.7702C0 7.84948 0 7.92877 0 7.99484C0.013624 8.60268 0.122631 9.19731 0.313366 9.77873C0.613093 10.7169 1.1308 11.5758 1.79837 12.329L7.17984 18.3546C7.26158 18.4471 7.3842 18.5 7.50682 18.5C7.62943 18.5 7.75204 18.4471 7.83378 18.3546L13.2153 12.329C13.842 11.6287 14.3324 10.8359 14.6321 9.96373C14.8638 9.30302 14.9864 8.61589 15 7.92876C15 7.84948 15 7.78341 15 7.70412C14.9591 3.80598 11.703 0.594967 7.68392 0.502468H7.69755Z" fill="#78C252"/>
</svg>
