<svg width="24" height="24" viewBox="0 0 24 24" fill="none" xmlns="http://www.w3.org/2000/svg">
<g clip-path="url(#clip0_1384_1598)">
<path d="M24 12C24 5.37258 18.6274 0 12 0C5.37258 0 0 5.37258 0 12C0 18.6274 5.37258 24 12 24C18.6274 24 24 18.6274 24 12Z" fill="url(#paint0_linear_1384_1598)"/>
<path fill-rule="evenodd" clip-rule="evenodd" d="M16.5161 17.1453C17.2398 17.1453 17.8323 16.5541 17.8323 15.8313V8.06443C17.8327 7.72694 17.7047 7.38944 17.4483 7.13341C16.9363 6.62212 16.0986 6.62227 15.5868 7.13341L12.798 9.91838C12.2861 10.4295 12.286 11.266 12.798 11.7772C13.3099 12.2883 14.1477 12.2885 14.6596 11.7772L15.1997 11.2378V15.8314C15.1997 16.5542 15.7923 17.1453 16.5161 17.1453Z" fill="white"/>
<path fill-rule="evenodd" clip-rule="evenodd" d="M6.16602 8.06468C6.16564 7.72718 6.2936 7.38968 6.54998 7.13365C7.0619 6.62236 7.89963 6.62252 8.41155 7.13365L11.2003 9.91862C11.7122 10.4298 11.7123 11.2662 11.2003 11.7775C10.6885 12.2886 9.85059 12.2887 9.33874 11.7775L8.7985 11.238V15.8316C8.7985 16.5545 8.20606 17.1456 7.4823 17.1456C6.75846 17.1456 6.16602 16.5545 6.16602 15.8316V8.06468Z" fill="#F7C21C"/>
</g>
<defs>
<linearGradient id="paint0_linear_1384_1598" x1="1.32359" y1="21.9452" x2="3.48646" y2="-4.50299" gradientUnits="userSpaceOnUse">
<stop stop-color="#0092A1"/>
<stop offset="1" stop-color="#009C4D"/>
</linearGradient>
<clipPath id="clip0_1384_1598">
<rect width="24" height="24" fill="white"/>
</clipPath>
</defs>
</svg>
