<svg width="24" height="24" viewBox="0 0 24 24" fill="none" xmlns="http://www.w3.org/2000/svg">
<path d="M9.50247 11.4744L7.31688 2.34468L7.22697 1.97119L6.88806 2.15102C3.33302 3.9977 0.898438 7.71183 0.898438 12C0.898438 16.2882 3.3261 20.0023 6.88115 21.849L7.22005 22.0288L7.30996 21.6553L9.49555 12.5257C9.57855 12.1798 9.57855 11.8202 9.49555 11.4744H9.50247Z" fill="black" stroke="white" stroke-width="0.87"/>
<path d="M12.2149 0.898965C10.3336 0.864383 8.55606 1.30012 6.99295 2.08859L6.5918 2.28917L6.9307 2.57966L17.8102 11.9929L6.9307 21.4062L6.5918 21.6967L6.99295 21.8972C8.49381 22.658 10.1953 23.0869 11.9935 23.0869C18.2045 23.0869 23.2189 17.9895 23.0944 11.7439C22.9699 5.82346 18.1284 0.995795 12.2149 0.885132V0.898965Z" fill="#EC1C24" stroke="white" stroke-width="0.87"/>
<path d="M12 1.16135e-05C13.5763 -0.00218443 15.1374 0.307084 16.5938 0.910049C18.0502 1.51301 19.3731 2.39779 20.4865 3.51356C22.6582 5.68531 24 8.68704 24 12C24 15.313 22.6582 18.3078 20.4865 20.4796C18.3147 22.6582 15.313 24 12.0069 24C8.70086 24 5.69222 22.6582 3.52046 20.4865C1.34179 18.3147 0 15.313 0 12C0 8.68704 1.34179 5.68531 3.51354 3.52047C5.6853 1.3418 8.68703 1.16135e-05 12 1.16135e-05ZM19.5458 4.45419C17.6161 2.52451 14.9464 1.32797 12 1.32797C9.0536 1.32797 6.38386 2.52451 4.45418 4.45419C2.5245 6.38387 1.32795 9.05361 1.32795 12C1.32795 14.9464 2.5245 17.6161 4.45418 19.5458C6.38386 21.4755 9.0536 22.6721 12 22.6721C14.9464 22.6721 17.6161 21.4755 19.5458 19.5458C21.4755 17.6161 22.672 14.9464 22.672 12C22.672 9.05361 21.4755 6.38387 19.5458 4.45419Z" fill="#FEFEFE"/>
<path d="M9.01841 12.0001L6.59766 22.2018L18.5977 12.0001L6.59766 1.79834L9.01841 12.0001Z" fill="#FEFEFE"/>
<path d="M0.601562 12.0001C0.601562 16.4059 3.02923 20.2445 6.5981 22.2018L8.9981 12.0001H0.601562Z" fill="black"/>
<path fill-rule="evenodd" clip-rule="evenodd" d="M6.58433 1.80505C4.76597 2.8134 3.25159 4.29132 2.19924 6.08457C1.1469 7.87781 0.59516 9.92065 0.601619 11.9999H8.99816L6.59816 1.80505H6.58433Z" fill="black"/>
<path fill-rule="evenodd" clip-rule="evenodd" d="M18.4386 12.0001H23.4046C23.3977 5.70613 18.3003 0.601807 12.0063 0.601807C10.049 0.601807 8.20918 1.09979 6.59766 1.96434L6.61149 2.01276L18.4317 12.0001H18.4386Z" fill="#EC1C24"/>
<path fill-rule="evenodd" clip-rule="evenodd" d="M18.4386 12.0001L6.61149 21.9805L6.59766 22.0359C8.20918 22.9073 10.049 23.3984 12.0063 23.3984C18.3003 23.3984 23.3977 18.2941 23.3977 12.0001H18.4317H18.4386Z" fill="#EC1C24"/>
</svg>
