<svg width="20" height="24" viewBox="0 0 20 24" fill="none" xmlns="http://www.w3.org/2000/svg">
<path d="M3.25 12H0.25M3.25 12C3.25 12.7956 3.56607 13.5587 4.12868 14.1213C4.69129 14.6839 5.45435 15 6.25 15C7.04565 15 7.80871 14.6839 8.37132 14.1213C8.93393 13.5587 9.25 12.7956 9.25 12M3.25 12C3.25 11.2044 3.56607 10.4413 4.12868 9.87868C4.69129 9.31607 5.45435 9 6.25 9C7.04565 9 7.80871 9.31607 8.37132 9.87868C8.93393 10.4413 9.25 11.2044 9.25 12M19.75 12H9.25M19.75 4.5H16.75M16.75 4.5C16.75 5.29565 16.4339 6.05871 15.8713 6.62132C15.3087 7.18393 14.5456 7.5 13.75 7.5C12.9544 7.5 12.1913 7.18393 11.6287 6.62132C11.0661 6.05871 10.75 5.29565 10.75 4.5M16.75 4.5C16.75 3.70435 16.4339 2.94129 15.8713 2.37868C15.3087 1.81607 14.5456 1.5 13.75 1.5C12.9544 1.5 12.1913 1.81607 11.6287 2.37868C11.0661 2.94129 10.75 3.70435 10.75 4.5M10.75 4.5H0.25M19.75 19.5H16.75M16.75 19.5C16.75 20.2956 16.4339 21.0587 15.8713 21.6213C15.3087 22.1839 14.5456 22.5 13.75 22.5C12.9544 22.5 12.1913 22.1839 11.6287 21.6213C11.0661 21.0587 10.75 20.2956 10.75 19.5M16.75 19.5C16.75 18.7044 16.4339 17.9413 15.8713 17.3787C15.3087 16.8161 14.5456 16.5 13.75 16.5C12.9544 16.5 12.1913 16.8161 11.6287 17.3787C11.0661 17.9413 10.75 18.7044 10.75 19.5M10.75 19.5H0.25" stroke="white" stroke-width="2"/>
</svg>
