<svg width="24" height="25" viewBox="0 0 24 25" fill="none" xmlns="http://www.w3.org/2000/svg">
<path d="M1 12.5C1 6.42487 5.92487 1.5 12 1.5V1.5C18.0751 1.5 23 6.42487 23 12.5V12.5C23 18.5751 18.0751 23.5 12 23.5V23.5C5.92487 23.5 1 18.5751 1 12.5V12.5Z" stroke="white" stroke-width="2"/>
<circle cx="12" cy="10.5" r="4" fill="white"/>
<path fill-rule="evenodd" clip-rule="evenodd" d="M18.221 18.7462C18.2791 18.8426 18.2614 18.966 18.1796 19.0432C16.5675 20.5662 14.3928 21.5 12.0001 21.5C9.60734 21.5 7.4327 20.5663 5.82063 19.0433C5.73883 18.966 5.72107 18.8427 5.77924 18.7463C6.94343 16.818 9.29221 15.5 12.0001 15.5C14.708 15.5 17.0568 16.8179 18.221 18.7462Z" fill="white"/>
</svg>
